<?xml version="1.0" standalone="no"?>
<!DOCTYPE svg PUBLIC "-//W3C//DTD SVG 20010904//EN"
 "http://www.w3.org/TR/2001/REC-SVG-20010904/DTD/svg10.dtd">
<svg version="1.0" xmlns="http://www.w3.org/2000/svg"
 width="1063.000000pt" height="1654.000000pt" viewBox="0 0 1063.000000 1654.000000"
 preserveAspectRatio="xMidYMid meet">
<metadata>
Created by potrace 1.16, written by Peter Selinger 2001-2019
</metadata>
<g transform="translate(0.000000,1654.000000) scale(0.100000,-0.100000)"
fill="#000000" stroke="none">
<path d="M6295 16414 c-74 -40 -105 -91 -105 -171 0 -79 33 -114 152 -163 88
-36 118 -66 118 -119 0 -93 -95 -118 -163 -43 -10 11 -26 40 -35 65 -20 53
-30 51 -61 -11 -29 -57 -24 -91 17 -119 65 -43 220 -40 282 5 87 65 105 210
33 276 -28 26 -33 29 -145 80 -68 30 -78 38 -86 68 -11 40 7 83 39 93 57 18
118 -21 148 -94 8 -17 17 -31 22 -31 15 0 50 80 47 107 -6 47 -49 68 -146 71
-65 2 -94 -2 -117 -14z"/>
<path d="M7450 16421 c-127 -41 -184 -136 -184 -306 0 -161 51 -249 163 -282
61 -17 168 -14 256 9 l50 13 5 85 c4 76 7 86 28 95 12 5 22 17 22 25 0 14 -44
16 -232 11 -29 -1 -20 -20 17 -38 19 -9 35 -21 36 -27 2 -21 2 -71 1 -98 -2
-21 -8 -28 -32 -33 -66 -15 -138 36 -160 113 -18 65 -23 203 -10 267 23 109
104 156 186 106 31 -19 74 -91 74 -125 0 -32 24 -11 55 46 25 48 28 60 17 82
-19 42 -66 60 -172 63 -52 1 -106 -1 -120 -6z"/>
<path d="M8648 16420 c-48 -14 -94 -48 -121 -87 -73 -106 -74 -319 -2 -423 69
-99 263 -120 375 -39 81 59 125 214 103 360 -22 139 -87 193 -238 196 -49 1
-102 -2 -117 -7z m174 -81 c16 -19 32 -55 39 -88 13 -65 7 -251 -11 -296 -42
-107 -165 -111 -214 -6 -18 40 -21 65 -21 186 0 120 3 146 20 180 25 50 57 67
115 61 35 -3 50 -11 72 -37z"/>
<path d="M520 16407 c0 -7 14 -18 30 -24 l30 -11 0 -245 0 -245 -30 -12 c-16
-7 -30 -19 -30 -26 0 -11 26 -14 130 -14 101 0 130 3 130 13 0 7 -15 20 -32
28 l-33 14 0 240 0 240 42 3 c34 3 48 -2 67 -21 56 -56 39 -189 -28 -221 -19
-9 -39 -16 -46 -16 -6 0 -10 -10 -8 -22 7 -50 143 -24 196 37 79 90 64 242
-27 278 -54 22 -391 25 -391 4z"/>
<path d="M1660 16410 c0 -5 13 -16 29 -24 16 -9 31 -23 35 -31 10 -27 7 -445
-4 -465 -5 -10 -21 -21 -35 -24 -14 -4 -25 -13 -25 -21 0 -13 19 -15 125 -13
125 3 150 11 105 35 -36 18 -40 32 -40 136 0 96 0 98 22 95 17 -2 39 -32 90
-123 37 -66 75 -125 84 -132 10 -8 47 -13 86 -13 80 0 84 8 37 66 -53 65 -162
238 -153 241 35 12 78 49 90 78 17 42 18 111 1 145 -25 51 -65 60 -264 60
-112 0 -183 -4 -183 -10z m285 -46 c43 -17 61 -132 27 -174 -17 -21 -84 -41
-110 -32 -13 4 -18 193 -5 205 8 9 66 9 88 1z"/>
<path d="M2870 16410 c0 -5 13 -16 29 -24 37 -20 41 -42 41 -246 0 -225 -5
-255 -41 -271 -16 -6 -29 -18 -29 -25 0 -11 25 -14 125 -14 134 0 154 9 95 42
l-30 17 0 235 c0 200 2 237 16 250 8 9 22 16 30 16 8 0 14 7 14 15 0 13 -21
15 -125 15 -74 0 -125 -4 -125 -10z"/>
<path d="M3890 16405 c0 -8 6 -15 14 -15 8 0 22 -7 30 -16 14 -13 16 -50 16
-250 l0 -235 -30 -17 c-59 -33 -39 -42 95 -42 100 0 125 3 125 14 0 7 -13 19
-30 26 -33 14 -32 11 -35 123 -4 109 0 117 44 117 44 0 54 -6 75 -48 10 -18
22 -32 28 -30 11 4 19 159 10 186 -7 21 -22 13 -39 -23 -16 -33 -20 -35 -64
-35 -33 0 -49 4 -53 16 -10 25 -7 140 4 168 9 24 14 26 74 26 71 0 92 -13 116
-70 13 -31 38 -46 52 -32 5 5 8 40 6 78 l-3 69 -217 3 c-190 2 -218 0 -218
-13z"/>
<path d="M4980 16411 c0 -5 11 -16 25 -25 17 -11 54 -73 105 -178 78 -156 80
-162 80 -233 0 -77 -9 -97 -50 -110 -11 -3 -20 -13 -20 -21 0 -11 23 -14 125
-14 105 0 125 2 125 15 0 9 -11 20 -24 24 -31 12 -36 29 -36 120 0 76 1 80 71
217 43 85 84 151 105 170 19 17 34 34 34 38 0 3 -43 6 -95 6 -77 0 -95 -3 -95
-15 0 -8 11 -17 24 -21 14 -3 27 -11 29 -18 6 -16 -86 -232 -98 -229 -8 1 -84
163 -100 212 -5 15 1 23 24 36 55 28 36 35 -99 35 -71 0 -130 -4 -130 -9z"/>
<path d="M9690 16407 c0 -7 14 -18 30 -24 l30 -11 0 -242 0 -241 -30 -17 c-65
-37 -42 -42 190 -42 l220 0 0 90 c0 109 -11 115 -64 35 -38 -58 -65 -75 -120
-75 -67 0 -67 -1 -64 260 l3 234 33 10 c17 5 32 15 32 22 0 11 -27 14 -130 14
-99 0 -130 -3 -130 -13z"/>
<path d="M6000 15239 c-396 -43 -625 -264 -694 -670 -36 -209 -18 -512 40
-681 73 -216 225 -355 449 -414 88 -23 407 -27 525 -6 128 23 333 72 346 83 9
7 13 72 16 237 2 125 8 235 12 245 5 10 39 34 77 53 62 31 69 37 69 64 l0 30
-365 0 -365 0 0 -32 c0 -31 4 -35 71 -63 38 -16 87 -44 107 -61 l37 -32 0
-164 c0 -138 -3 -168 -17 -190 -25 -39 -76 -51 -183 -46 -306 16 -437 256
-444 814 -5 360 67 574 220 659 51 28 61 30 164 30 102 0 114 -2 168 -29 113
-58 205 -191 245 -354 16 -70 18 -73 45 -70 26 3 37 18 105 143 70 127 77 145
77 196 0 67 -31 114 -104 160 -119 76 -392 120 -601 98z"/>
<path d="M7660 15239 c-442 -35 -696 -320 -719 -809 -20 -443 86 -737 319
-881 183 -114 539 -132 781 -40 75 28 163 86 222 146 168 168 247 414 248 776
1 546 -207 791 -691 811 -41 2 -113 1 -160 -3z m168 -154 c63 -19 139 -78 180
-140 35 -52 74 -164 94 -270 19 -103 16 -529 -5 -660 -34 -212 -95 -332 -197
-389 -51 -29 -62 -31 -155 -31 -87 0 -107 3 -157 27 -148 69 -222 227 -249
530 -16 181 -6 472 20 598 37 174 119 296 224 334 55 19 181 20 245 1z"/>
<path d="M500 15178 c0 -31 4 -35 72 -63 123 -52 113 14 116 -717 3 -638 -1
-743 -33 -778 -8 -9 -47 -30 -85 -45 -67 -27 -70 -30 -70 -62 l0 -33 403 0
c419 0 533 7 655 40 100 27 165 63 229 123 97 92 140 220 131 395 -6 125 -31
184 -104 251 -61 56 -122 82 -245 106 -81 15 -117 33 -106 52 4 6 47 27 97 48
195 80 272 186 272 371 -1 195 -93 304 -282 334 -38 6 -272 10 -557 10 l-493
0 0 -32z m817 -120 c56 -14 116 -67 138 -120 26 -65 31 -180 11 -258 -38 -147
-127 -204 -319 -202 -111 1 -107 -10 -107 281 0 135 3 256 6 268 13 48 146 63
271 31z m49 -752 c33 -15 72 -39 87 -54 75 -70 109 -215 90 -372 -15 -118 -49
-183 -117 -225 -48 -29 -53 -30 -171 -30 -117 0 -123 1 -158 28 -23 17 -40 41
-47 65 -15 56 -13 574 3 594 20 25 36 28 148 24 90 -3 116 -8 165 -30z"/>
<path d="M2596 15202 c-3 -5 -23 -58 -44 -118 -74 -204 -513 -1326 -541 -1382
-32 -64 -66 -98 -128 -132 -46 -25 -54 -38 -46 -69 5 -21 9 -21 294 -21 l289
0 0 33 c0 32 -3 34 -81 66 -95 39 -119 60 -119 102 0 45 126 421 150 447 28
30 61 34 267 30 167 -3 184 -5 202 -23 25 -26 163 -445 159 -482 -3 -24 -14
-33 -85 -68 -79 -37 -83 -41 -83 -72 l0 -33 370 0 370 0 0 33 c0 30 -5 35 -64
64 -37 19 -75 46 -91 67 -14 19 -55 115 -90 213 -155 432 -425 1194 -445 1258
-13 39 -28 76 -33 83 -11 14 -242 18 -251 4z m97 -578 c102 -316 98 -301 81
-319 -12 -12 -44 -15 -157 -15 -166 0 -187 4 -187 34 0 19 66 219 146 444 15
41 31 71 38 69 6 -2 41 -98 79 -213z"/>
<path d="M3600 15182 c0 -21 18 -45 80 -107 49 -49 86 -95 95 -120 14 -35 15
-123 13 -662 -3 -719 8 -651 -116 -716 -64 -34 -72 -41 -72 -67 l0 -30 294 0
294 0 4 24 c3 14 2 29 -1 34 -3 6 -47 26 -97 47 -105 42 -129 60 -143 112 -16
56 -15 999 1 1009 6 4 21 -5 35 -22 37 -46 591 -816 684 -952 46 -67 104 -151
129 -185 l45 -62 99 -3 c64 -2 103 1 112 9 12 10 14 129 14 743 0 402 4 748 9
769 12 52 44 83 119 117 56 26 62 32 62 59 l0 31 -295 0 -295 0 0 -32 c0 -32
2 -34 102 -73 156 -61 142 -8 146 -572 1 -262 -1 -480 -6 -485 -4 -4 -20 4
-33 19 -34 37 -536 742 -686 963 l-118 175 -238 3 -237 2 0 -28z"/>
<path d="M8530 15180 c0 -24 6 -33 25 -40 93 -35 138 -64 151 -96 20 -48 21
-1348 1 -1397 -14 -33 -24 -40 -119 -81 -53 -23 -58 -28 -58 -55 l0 -31 364 0
c338 0 364 1 368 18 8 36 -5 49 -75 78 -108 45 -110 51 -115 303 -1 113 1 249
5 301 l8 95 59 0 60 0 128 -225 c71 -124 160 -281 198 -350 38 -69 84 -140
102 -159 55 -57 76 -61 293 -61 l195 0 0 33 c0 26 -10 42 -46 77 -69 67 -172
209 -344 472 -191 293 -185 282 -177 300 3 9 41 35 84 59 146 81 213 174 235
331 26 181 -35 338 -156 400 -101 52 -95 52 -658 55 l-528 4 0 -31z m798 -121
c124 -46 177 -156 170 -348 -3 -83 -9 -115 -25 -146 -49 -92 -130 -136 -268
-142 -140 -7 -130 -31 -130 315 0 268 1 291 19 310 10 12 32 23 50 25 47 5
154 -3 184 -14z"/>
<path d="M6905 12858 c-79 -29 -124 -93 -125 -175 0 -85 26 -117 145 -172 99
-47 120 -69 120 -126 0 -57 -25 -85 -75 -85 -50 0 -83 28 -111 95 -12 30 -27
55 -33 55 -12 0 -56 -92 -56 -115 0 -28 14 -47 49 -64 90 -45 216 -34 281 26
47 42 64 87 58 162 -6 86 -30 113 -153 172 -87 41 -105 53 -114 79 -18 54 13
101 68 102 44 1 80 -27 105 -83 11 -27 26 -49 32 -49 7 0 22 24 34 54 25 63
19 86 -33 112 -39 21 -151 28 -192 12z"/>
<path d="M520 12845 c0 -9 11 -21 25 -27 14 -6 28 -21 30 -32 3 -12 6 -116 7
-233 3 -197 4 -213 24 -240 39 -52 79 -67 175 -67 111 0 171 27 206 93 22 42
23 54 23 245 0 111 4 206 8 212 4 6 17 16 30 23 12 6 22 18 22 26 0 12 -21 15
-115 15 -94 0 -115 -3 -115 -14 0 -8 12 -21 28 -28 l27 -13 0 -232 c0 -213 -1
-233 -19 -252 -28 -31 -108 -30 -141 3 -33 33 -36 63 -33 286 l3 195 28 13
c15 7 27 20 27 28 0 11 -22 14 -120 14 -101 0 -120 -2 -120 -15z"/>
<path d="M1640 12840 c0 -11 7 -23 15 -27 39 -14 45 -54 45 -277 l0 -215 -32
-25 c-45 -35 -27 -45 76 -41 98 3 96 3 96 15 0 6 -18 17 -39 26 -24 9 -41 24
-45 37 -9 34 -5 338 5 335 8 -3 171 -235 245 -350 36 -56 48 -67 66 -64 13 3
31 5 41 5 16 1 17 21 17 271 l0 269 30 16 c17 9 30 22 30 30 0 12 -19 15 -100
15 -82 0 -100 -3 -100 -15 0 -8 16 -21 35 -29 19 -8 38 -21 40 -28 3 -8 4 -85
3 -173 l-3 -159 -130 195 c-71 106 -134 197 -140 201 -5 4 -43 8 -82 8 -67 0
-73 -2 -73 -20z"/>
<path d="M2750 12846 c0 -8 12 -21 28 -28 l27 -13 3 -247 2 -247 -30 -16 c-16
-8 -30 -19 -30 -24 0 -11 79 -23 135 -21 110 4 144 21 86 41 -16 6 -31 18 -34
28 -2 10 -5 119 -6 243 l-2 226 30 23 c56 42 43 49 -89 49 -98 0 -120 -3 -120
-14z"/>
<path d="M3570 12849 c0 -6 13 -23 28 -38 30 -27 42 -60 139 -388 52 -176 51
-174 126 -165 20 2 37 10 37 16 0 7 38 127 85 267 67 200 90 258 110 274 45
37 33 45 -70 45 -78 0 -95 -3 -95 -15 0 -9 10 -19 23 -24 48 -19 48 -26 -8
-220 -30 -102 -57 -193 -62 -204 -7 -15 -23 30 -66 185 -31 112 -57 209 -57
215 0 6 14 16 30 23 17 7 30 19 30 26 0 11 -25 14 -125 14 -84 0 -125 -4 -125
-11z"/>
<path d="M4680 12845 c0 -8 10 -20 23 -26 12 -7 25 -17 29 -23 9 -13 10 -441
2 -474 -4 -12 -17 -25 -29 -28 -27 -7 -40 -30 -21 -37 18 -7 373 -7 408 0 26
5 27 8 30 82 2 42 2 81 0 87 -7 24 -39 1 -65 -47 -16 -27 -37 -53 -47 -59 -26
-14 -123 -13 -138 2 -8 8 -12 49 -12 121 l0 108 48 -3 c43 -3 49 -6 67 -40 11
-21 25 -36 30 -35 13 5 13 196 0 200 -5 1 -19 -15 -30 -35 -19 -36 -23 -38
-67 -38 l-48 0 0 94 c0 54 4 98 10 101 21 13 96 13 125 1 20 -9 37 -27 49 -55
14 -29 25 -41 40 -41 20 0 22 5 20 73 -1 39 -3 75 -3 80 -1 4 -95 7 -211 7
-178 0 -210 -2 -210 -15z"/>
<path d="M5690 12846 c0 -8 12 -21 28 -28 l27 -13 3 -247 2 -247 -30 -16 c-57
-29 -32 -40 90 -40 81 0 115 4 117 12 3 7 -7 18 -21 24 -30 14 -39 57 -34 164
3 62 5 70 23 70 15 0 36 -31 89 -127 42 -78 76 -130 88 -134 31 -10 138 -12
144 -2 3 4 -8 25 -24 46 -37 48 -162 241 -162 250 1 4 15 16 32 27 68 44 95
125 65 197 -28 67 -48 73 -254 76 -160 3 -183 2 -183 -12z m283 -58 c50 -26
49 -160 -1 -187 -31 -16 -75 -21 -89 -9 -20 16 -18 182 3 202 16 16 48 14 87
-6z"/>
<path d="M7740 12848 c0 -7 14 -21 30 -30 l30 -17 0 -245 0 -245 -31 -16 c-54
-28 -31 -40 82 -42 57 -1 112 1 122 3 26 8 21 24 -12 35 -16 6 -32 20 -35 32
-8 32 -7 460 2 472 4 6 20 18 35 28 15 10 25 22 22 27 -10 16 -245 13 -245 -2z"/>
<path d="M8557 12854 c-4 -4 -7 -40 -7 -81 0 -66 2 -73 19 -73 13 0 29 16 46
49 27 50 54 65 96 54 17 -5 18 -20 21 -222 4 -272 4 -269 -38 -287 -69 -29
-33 -42 115 -42 51 0 100 2 107 5 23 9 16 22 -21 37 l-35 15 0 245 c0 235 1
245 20 251 31 10 73 -16 98 -63 15 -27 30 -42 43 -42 18 0 20 6 17 78 l-3 77
-236 3 c-129 1 -238 -1 -242 -4z"/>
<path d="M9600 12849 c0 -6 12 -20 26 -32 16 -12 55 -81 100 -175 l74 -155 0
-88 0 -88 -31 -16 c-16 -9 -29 -21 -26 -28 7 -22 247 -18 247 4 0 6 -13 15
-29 20 -35 12 -38 24 -39 123 -1 76 0 78 78 236 46 93 87 163 99 170 12 6 21
17 21 25 0 12 -18 15 -90 15 -73 0 -90 -3 -90 -15 0 -8 14 -22 31 -30 22 -12
29 -21 24 -33 -36 -97 -90 -222 -96 -222 -8 0 -99 213 -99 233 0 8 11 19 25
25 14 6 25 18 25 27 0 13 -20 15 -125 15 -85 0 -125 -4 -125 -11z"/>
<path d="M2645 11553 l-2110 -3 2 -3408 c1 -2351 5 -3452 13 -3552 92 -1215
671 -2319 1670 -3181 704 -607 1631 -1066 2482 -1228 285 -54 627 -74 878 -52
641 59 1347 294 2005 669 1102 627 1929 1558 2293 2583 112 315 172 576 219
954 15 117 17 476 20 3678 l4 3547 -2683 -2 c-1476 -2 -3632 -4 -4793 -5z
m4183 -191 c10 -7 12 -1086 10 -5362 l-3 -5354 -85 -34 c-472 -186 -1014 -302
-1423 -302 -410 0 -954 117 -1427 307 l-95 38 -3 5352 -2 5353 422 3 c1067 6
2594 6 2606 -1z m-3178 -2407 l0 -2405 -1460 0 -1460 0 0 2405 0 2405 1460 0
1460 0 0 -2405z m3359 2375 c2 27 21 -11 22 -45 2 -29 2 -29 8 5 l6 35 28 -30
c72 -78 114 -115 132 -115 18 0 75 -52 75 -69 0 -6 7 -11 15 -11 9 0 18 -7 21
-15 5 -13 60 -52 94 -66 8 -3 22 -19 30 -34 9 -16 37 -41 62 -55 25 -14 73
-53 106 -87 36 -38 69 -63 82 -63 11 0 23 -7 27 -15 3 -9 19 -23 35 -31 16 -8
34 -26 40 -39 11 -24 37 -43 118 -88 45 -25 152 -135 144 -148 -3 -6 2 -9 11
-7 10 2 20 -3 22 -10 3 -7 -1 -10 -11 -6 -8 3 -25 -4 -38 -17 l-23 -23 28 18
c15 9 32 14 38 10 6 -4 14 -1 18 5 11 17 63 19 69 2 3 -10 -2 -12 -21 -7 -14
3 -29 1 -32 -4 -4 -6 -14 -10 -23 -9 -19 3 -70 -19 -91 -39 -7 -7 -20 -11 -28
-8 -8 3 -12 2 -9 -2 5 -9 -28 -42 -42 -42 -4 0 -12 -8 -17 -18 -6 -10 -25 -40
-42 -67 -18 -27 -33 -59 -33 -71 0 -23 -10 -27 -93 -39 -57 -9 -63 -22 -61
-135 1 -91 23 -162 71 -232 l36 -51 -49 -44 c-46 -40 -103 -74 -148 -88 -17
-5 -18 -12 -12 -68 4 -34 16 -79 27 -101 11 -21 19 -40 17 -41 -10 -10 -103
135 -123 192 -45 125 -32 171 65 233 86 55 89 126 10 321 -22 56 -45 123 -51
150 -6 28 -16 49 -24 49 -15 0 -64 -54 -91 -99 -10 -17 -21 -31 -24 -31 -3 0
-24 31 -47 69 -40 63 -75 92 -88 70 -4 -5 -14 -46 -24 -91 l-18 -83 -28 43
c-15 23 -33 42 -41 42 -35 0 -58 -263 -30 -365 14 -55 50 -130 66 -140 18 -11
-7 -40 -49 -60 -23 -10 -41 -23 -41 -29 0 -7 9 -79 21 -161 25 -184 53 -318
86 -408 13 -38 22 -75 19 -83 -3 -8 -2 -13 3 -10 4 3 18 -14 31 -39 12 -24 28
-46 36 -49 7 -3 18 -15 25 -27 9 -18 9 -21 -3 -17 -10 4 -14 -2 -14 -18 0 -14
6 -24 14 -24 8 0 12 6 8 15 -3 8 -1 15 4 15 9 0 14 -14 11 -32 0 -5 3 -8 8 -8
5 0 11 -9 14 -21 4 -15 2 -19 -9 -15 -8 3 -14 1 -14 -4 0 -6 5 -10 10 -10 6 0
10 -8 10 -17 0 -14 2 -15 9 -5 7 11 9 11 14 -1 7 -18 -14 -17 -36 1 -12 10
-16 10 -21 0 -3 -7 -3 0 0 17 3 16 11 34 17 38 8 6 6 7 -5 3 -10 -3 -18 0 -18
6 0 6 -3 9 -6 5 -3 -3 -22 10 -42 30 -29 30 -33 38 -21 47 18 14 23 43 8 52
-8 5 -10 2 -7 -8 4 -8 2 -21 -3 -29 -8 -12 -11 -12 -20 1 -9 13 -10 12 -5 -2
9 -28 -22 -22 -55 11 -16 16 -29 34 -29 40 0 6 -12 11 -27 11 -34 0 -63 26
-65 59 0 16 -4 8 -8 -19 l-7 -45 -3 45 c-2 42 -3 43 -10 15 -4 -16 -8 508 -8
1165 0 675 3 1186 8 1175 6 -13 9 -15 9 -5z m2449 -777 c13 -28 14 -40 2 -87
-15 -62 -9 -86 19 -86 19 0 51 52 51 83 0 9 4 18 9 21 14 9 21 -48 12 -103
-16 -104 -121 -187 -312 -248 -100 -32 -119 -41 -119 -58 0 -13 13 -27 35 -39
44 -24 52 -54 31 -111 -27 -69 -40 -73 -68 -23 -28 51 -80 88 -122 88 -97 -1
-162 -80 -154 -188 5 -73 34 -114 108 -150 48 -23 67 -27 148 -27 l93 0 -3
-40 -3 -40 -76 -3 c-91 -3 -160 19 -251 82 -88 60 -121 121 -126 236 -5 108 7
135 124 272 121 143 133 210 52 290 -40 39 -41 41 -22 55 65 51 130 55 178 13
66 -58 72 -146 18 -252 -31 -59 -33 -88 -5 -88 28 0 174 83 221 125 26 24 60
66 76 95 26 47 28 58 24 133 -3 45 -8 91 -13 101 -8 19 -8 19 25 0 18 -10 39
-33 48 -51z m-1256 -250 c3 -40 6 -48 23 -48 13 0 26 13 38 38 19 42 34 46 68
18 23 -18 23 -21 10 -70 -7 -29 -10 -55 -7 -58 3 -4 18 0 32 7 34 19 44 3 44
-68 0 -43 5 -58 25 -78 18 -18 29 -23 38 -16 21 18 86 25 102 12 54 -45 -46
-253 -159 -330 -20 -14 -36 -31 -36 -37 0 -7 16 -29 35 -49 48 -49 88 -119 81
-141 -4 -10 -20 -34 -36 -53 l-29 -35 -33 33 c-19 17 -44 32 -56 32 -19 0 -22
-6 -22 -35 0 -20 9 -53 20 -75 25 -50 25 -75 -1 -111 -19 -27 -22 -28 -41 -15
-11 8 -26 25 -32 38 -15 30 -42 34 -56 8 -10 -18 -6 -32 22 -87 l33 -65 -28
-24 c-15 -13 -31 -24 -36 -24 -4 0 -18 18 -31 40 -17 26 -32 40 -46 40 -32 0
-36 -25 -12 -74 20 -42 20 -46 5 -70 -10 -14 -49 -48 -89 -76 -55 -39 -74 -47
-85 -39 -19 16 -16 84 7 157 11 35 20 70 20 78 0 27 -38 14 -69 -23 l-31 -38
-30 34 -29 34 21 41 c11 23 41 67 65 99 37 47 43 60 33 72 -7 8 -17 15 -23 15
-7 0 -42 -30 -79 -67 -37 -37 -69 -65 -71 -62 -31 38 -57 78 -57 87 0 6 32 45
70 86 74 81 88 116 45 116 -16 0 -42 -17 -75 -50 -28 -28 -56 -48 -61 -44 -11
7 -39 66 -39 82 0 5 26 25 58 45 80 50 182 144 182 168 0 11 -20 38 -43 60
-24 22 -53 59 -65 82 -23 47 -38 143 -27 177 6 20 11 22 60 15 62 -7 85 8 85
58 0 18 8 44 18 59 17 25 20 27 38 13 10 -8 30 -15 43 -15 22 0 23 3 18 47 -9
85 22 121 55 63 27 -48 58 -35 58 24 0 30 18 46 51 46 26 0 28 -3 31 -47z
m-991 -343 c20 -14 55 -34 77 -44 l42 -19 -2 -69 c-2 -67 7 -87 35 -88 20 0
38 75 35 146 -3 72 -3 72 17 56 11 -9 21 -17 23 -18 2 -1 -4 -39 -12 -84 -20
-101 -21 -262 -2 -322 7 -25 53 -103 102 -174 83 -121 89 -132 96 -198 14
-117 68 -231 175 -370 29 -38 53 -73 53 -77 0 -5 -17 -11 -37 -15 -20 -4 -62
-20 -93 -35 -100 -51 -170 -72 -208 -62 -27 6 -54 56 -75 136 -16 61 -17 60
39 57 69 -3 44 58 -33 84 -60 21 -71 30 -112 89 l-32 47 46 0 c62 0 59 16 -20
92 -68 67 -83 100 -43 95 17 -1 24 4 26 21 3 16 -13 38 -62 85 -39 38 -66 72
-66 84 0 18 5 20 45 15 40 -4 45 -2 45 16 0 11 -27 50 -60 86 -33 37 -60 74
-60 84 0 9 14 26 31 37 62 41 85 108 52 154 -32 47 -71 139 -78 186 -8 53 -10
53 56 5z m1448 -102 c2 -99 7 -121 39 -173 27 -43 95 -123 98 -115 1 3 10 -2
20 -11 25 -22 91 -55 149 -75 63 -21 182 -33 195 -20 7 7 13 7 18 1 9 -13 35
-18 27 -5 -3 5 0 10 7 10 17 0 58 -29 43 -30 -16 -1 58 -39 78 -40 11 0 17 -6
15 -17 -2 -14 3 -17 20 -15 12 2 22 -2 22 -7 0 -6 6 -10 13 -8 6 1 11 -4 10
-10 -2 -7 2 -13 8 -13 21 0 3 25 -29 40 -31 15 -46 35 -17 24 8 -4 21 -2 28 4
17 14 31 -5 35 -47 l4 -33 -44 8 c-24 4 -51 7 -61 6 -9 0 -15 2 -13 7 3 4 -11
5 -30 3 -21 -3 -34 0 -34 7 0 7 -4 9 -10 6 -5 -3 -35 2 -67 10 -32 9 -66 17
-75 16 -10 0 -18 5 -18 10 0 6 -4 8 -8 5 -5 -3 -44 1 -88 9 -43 8 -137 15
-209 15 -71 0 -146 3 -165 6 -34 6 -35 8 -32 42 3 39 -22 86 -88 163 l-31 36
59 62 c40 41 71 87 93 136 19 41 35 74 35 75 1 0 2 -37 3 -82z m854 47 c61
-59 49 -107 -38 -156 -42 -24 -62 -43 -86 -86 -44 -77 -44 -153 2 -153 14 0
26 15 44 55 23 53 55 81 63 57 2 -7 15 -9 31 -6 38 8 104 -23 163 -75 76 -67
86 -147 35 -263 -19 -42 -35 -61 -73 -85 -59 -38 -96 -48 -121 -35 -19 11 -16
13 66 26 38 7 71 31 71 52 0 11 -23 13 -112 9 -105 -5 -110 -4 -68 8 91 26
170 98 170 155 0 40 -27 90 -59 106 -42 22 -78 20 -155 -9 -132 -50 -186 -21
-186 97 0 58 21 112 66 174 63 86 130 164 140 164 6 0 27 -16 47 -35z m-443
-592 c52 -13 124 -32 160 -41 56 -15 65 -20 62 -38 -2 -13 6 -25 24 -34 42
-23 102 -98 123 -155 11 -29 31 -108 46 -176 37 -176 52 -222 91 -280 19 -28
41 -66 50 -85 9 -19 38 -48 70 -69 63 -42 84 -69 84 -107 0 -26 -3 -28 -42
-29 -24 -1 -52 -1 -63 0 -26 2 -84 -77 -137 -187 -39 -80 -90 -283 -75 -298
16 -16 46 9 52 45 3 21 31 85 61 142 29 57 70 138 90 178 l36 75 15 -28 c14
-26 34 -126 26 -126 -2 0 -17 10 -33 22 -24 17 -32 19 -45 8 -18 -15 -19 -39
-2 -65 27 -41 49 -155 30 -155 -5 0 -23 9 -41 20 -18 11 -37 20 -42 20 -17 0
-11 -56 10 -105 33 -76 21 -147 -15 -92 -20 32 -59 49 -74 34 -15 -15 -14 -45
5 -99 8 -26 14 -61 12 -80 -3 -36 -10 -38 -75 -23 -28 6 -36 3 -60 -23 -16
-17 -43 -72 -62 -126 -19 -53 -37 -96 -40 -96 -3 0 -29 43 -57 95 l-51 94 49
48 c49 47 130 167 143 211 5 18 2 22 -14 22 -14 0 -42 -26 -83 -77 -34 -43
-93 -109 -131 -146 -68 -67 -69 -70 -64 -110 3 -23 8 -51 12 -62 5 -17 -4 -24
-67 -47 -39 -15 -73 -26 -75 -24 -2 1 13 56 32 122 19 65 35 119 35 120 0 1
12 4 28 7 44 9 106 56 141 106 17 26 48 97 67 157 54 167 82 229 126 279 l40
46 -16 42 c-16 41 -70 115 -171 232 -118 135 -142 196 -129 329 17 185 0 271
-63 326 -36 32 -82 38 -74 10 23 -81 1 -112 -47 -68 -15 14 -42 30 -61 37 -53
17 -178 13 -241 -9 -30 -10 -57 -16 -60 -13 -7 6 37 41 94 75 35 21 46 33 46
53 0 35 -16 33 -144 -20 -181 -75 -237 -118 -261 -199 -22 -73 -19 -129 10
-186 25 -50 33 -104 16 -115 -5 -3 -26 2 -46 12 -27 13 -40 15 -53 7 -27 -18
-26 -42 7 -91 35 -52 36 -59 19 -114 -13 -44 -24 -48 -62 -18 -14 11 -36 19
-48 17 -19 -2 -23 -9 -21 -34 2 -18 14 -54 28 -82 45 -90 25 -167 -31 -123
-31 24 -72 28 -80 7 -3 -8 8 -46 25 -84 33 -76 36 -96 21 -137 l-10 -26 -41
21 c-80 41 -111 9 -62 -63 22 -33 28 -53 27 -94 0 -29 -3 -55 -7 -59 -4 -4
-24 5 -46 20 -27 19 -46 26 -60 21 -27 -8 -27 -14 9 -85 33 -65 36 -86 18
-126 -12 -25 -15 -26 -65 -21 -50 5 -54 4 -67 -22 -8 -15 -54 -72 -102 -126
-47 -55 -94 -110 -102 -123 -13 -20 -17 -21 -24 -8 -5 9 -13 55 -19 103 -5 49
-12 95 -14 104 -4 11 11 29 42 53 52 41 140 140 149 169 10 33 -7 33 -34 0
-15 -17 -68 -58 -118 -92 -50 -33 -103 -74 -117 -91 -32 -37 -50 -99 -41 -136
6 -25 -6 -43 -29 -44 -4 0 -6 55 -5 122 l3 122 45 11 c99 26 217 113 258 191
21 40 49 169 73 329 28 196 60 323 104 413 20 39 33 76 30 82 -3 5 29 33 72
61 150 101 269 203 449 384 181 183 203 202 259 216 58 16 293 -1 395 -28z
m616 -201 c-7 -11 46 -8 64 3 9 5 11 4 6 -3 -4 -7 -1 -12 9 -12 18 0 75 -52
75 -69 0 -6 5 -11 11 -11 6 0 24 -13 40 -29 l29 -30 -2 -1163 -3 -1163 -32 33
c-17 17 -39 32 -48 32 -18 0 -75 52 -75 69 0 6 -7 11 -15 11 -9 0 -18 7 -21
15 -6 13 -60 51 -97 67 -9 4 -20 16 -24 25 -10 29 -35 53 -55 53 -10 0 -54 36
-97 79 -58 58 -78 86 -78 105 0 21 2 24 13 15 25 -20 15 3 -11 27 -14 13 -25
33 -25 45 0 42 41 170 61 190 10 10 19 28 19 39 0 25 21 70 32 70 5 0 20 -7
33 -16 56 -37 92 0 190 201 97 197 134 344 142 556 6 147 -4 203 -37 214 -33
11 -118 113 -138 168 -11 28 -32 112 -47 186 -15 73 -33 154 -41 180 -13 44
-13 47 8 61 12 8 34 20 49 27 23 10 27 9 22 -3 -3 -8 -11 -14 -19 -14 -8 0
-14 -5 -14 -10 0 -18 40 9 52 36 6 13 15 24 20 24 5 0 7 -4 4 -8z m-1026 -154
c-66 -91 -76 -226 -30 -396 13 -45 20 -85 17 -88 -12 -12 -307 -18 -307 -6 0
6 16 55 35 108 33 90 35 104 29 170 -6 65 -4 75 17 106 42 61 108 107 194 134
73 23 79 19 45 -28z m246 31 c9 -15 -15 -29 -50 -29 -31 0 -66 -24 -66 -46 0
-7 18 -19 40 -25 61 -18 81 -47 87 -122 7 -86 -20 -138 -89 -173 -38 -19 -48
-30 -48 -49 0 -16 7 -28 18 -31 72 -23 86 -47 108 -181 9 -54 18 -110 21 -124
4 -22 -4 -33 -49 -69 -85 -70 -128 -112 -154 -152 -26 -41 -30 -58 -13 -58 12
0 40 23 168 139 46 42 90 80 97 84 19 11 17 67 -6 173 -26 117 -27 237 -2 269
18 23 18 22 14 -61 -6 -105 9 -164 56 -233 68 -99 72 -106 72 -131 -1 -15 -11
-32 -26 -44 -23 -16 -30 -17 -70 -6 -38 11 -48 11 -60 -2 -13 -13 -12 -21 7
-71 17 -46 19 -60 9 -72 -11 -13 -16 -13 -47 0 -39 16 -103 20 -103 6 0 -5 7
-28 15 -51 19 -54 19 -77 -1 -97 -14 -14 -19 -12 -53 21 -38 37 -71 47 -71 21
0 -8 5 -34 12 -58 6 -24 8 -52 5 -61 -6 -16 -9 -16 -29 -2 -25 18 -70 21 -98
6 -10 -5 -44 -44 -75 -85 -60 -80 -108 -130 -112 -118 -2 5 10 66 25 136 l28
128 56 42 c31 24 70 60 87 81 58 73 29 90 -47 27 -26 -21 -73 -53 -104 -70
-97 -54 -138 -110 -138 -188 0 -13 -4 -23 -8 -23 -5 0 0 47 11 104 l21 104 47
4 c66 7 104 39 188 156 67 94 113 140 176 173 51 28 53 52 12 191 -63 210 -70
345 -26 463 16 43 29 60 66 84 48 32 87 40 99 20z m270 -564 c32 -38 87 -98
121 -133 35 -35 63 -69 63 -77 0 -7 -15 -36 -34 -64 -19 -28 -53 -99 -76 -158
-57 -151 -89 -225 -106 -248 -14 -18 -16 -17 -62 28 -72 71 -122 61 -207 -40
-30 -35 -55 -58 -56 -51 0 10 -2 10 -6 0 -2 -6 -10 -9 -16 -5 -7 4 -7 1 1 -9
8 -10 9 -19 3 -22 -5 -4 -14 2 -20 11 -6 10 -11 13 -11 6 0 -6 5 -15 10 -18
16 -10 12 -23 -9 -30 -14 -4 -18 -12 -14 -23 3 -9 3 -14 -2 -10 -4 4 -13 3
-20 -2 -8 -7 -12 -5 -12 5 0 8 4 12 9 9 20 -12 5 12 -25 41 l-34 33 32 0 c24
0 49 13 91 47 96 75 106 84 134 123 15 20 45 50 67 65 23 16 47 43 54 60 7 18
31 52 52 77 38 43 87 131 87 158 0 7 -16 35 -35 62 -19 27 -35 52 -35 55 0 3
-10 22 -23 43 -13 20 -31 55 -40 78 l-16 41 32 15 c18 9 35 13 38 9 4 -3 33
-37 65 -76z m-478 -82 c13 -41 19 -31 -122 -185 -74 -81 -89 -88 -143 -67 -42
17 -143 23 -143 8 0 -6 -8 -9 -20 -6 -11 3 -23 0 -27 -5 -4 -7 -1 -8 7 -3 8 5
11 3 8 -6 -3 -8 -12 -14 -20 -13 -7 1 -15 -7 -15 -18 -1 -10 -8 -25 -16 -33
-13 -13 -16 -12 -22 2 -3 10 0 22 7 28 7 5 13 24 14 40 0 17 11 53 24 80 13
28 24 52 24 55 1 3 12 38 26 77 l23 73 161 3 c89 1 175 4 192 5 27 2 32 -2 42
-35z m1219 -2935 c-3 -964 -4 -1009 -25 -1154 -91 -635 -305 -1191 -660 -1714
-475 -700 -1175 -1298 -2007 -1713 -104 -52 -200 -97 -212 -101 l-23 -7 0
2845 0 2846 1465 0 1466 0 -4 -1002z m-8682 982 c28 -4 38 -8 23 -9 -20 -1
-26 -5 -22 -16 6 -13 60 -51 97 -67 9 -4 20 -16 24 -25 10 -30 35 -53 55 -53
11 0 37 -18 58 -40 21 -22 46 -40 55 -40 18 0 75 -52 75 -69 0 -6 5 -11 11
-11 13 0 69 -55 69 -69 0 -5 15 -11 33 -13 22 -2 35 -10 42 -25 5 -12 20 -25
33 -28 27 -7 24 -30 -4 -30 -12 0 -19 -7 -20 -21 -1 -16 4 -21 20 -20 13 1 20
8 20 19 -2 15 9 22 19 15 2 -2 11 3 20 11 32 26 16 1 -28 -46 -25 -25 -45 -50
-45 -54 0 -4 -6 -14 -14 -22 -8 -7 -21 -34 -29 -58 -15 -43 -16 -44 -72 -54
-37 -7 -60 -16 -67 -29 -6 -10 -9 -60 -6 -120 4 -105 28 -179 78 -243 l20 -26
-47 -43 c-27 -24 -72 -55 -102 -70 l-53 -26 7 -66 c4 -37 13 -76 21 -87 8 -10
14 -26 14 -35 0 -20 -92 124 -113 178 -9 23 -17 70 -17 103 0 66 4 72 98 147
41 33 42 34 42 97 0 62 -10 99 -74 268 -14 37 -26 80 -26 96 0 36 -7 42 -34
30 -20 -9 -72 -80 -87 -117 -3 -10 -22 12 -53 62 -62 100 -79 101 -100 7 -9
-39 -16 -80 -16 -93 -1 -19 -5 -16 -27 20 -15 26 -32 42 -41 40 -28 -5 -43
-93 -40 -234 3 -130 3 -132 40 -204 35 -67 37 -75 22 -91 -8 -9 -29 -23 -45
-29 -22 -9 -29 -19 -29 -39 0 -32 36 -287 50 -356 5 -27 12 -63 14 -80 2 -16
9 -43 16 -60 6 -16 14 -45 17 -62 3 -18 10 -33 15 -33 5 0 8 -8 6 -18 -2 -11
3 -26 11 -35 9 -11 10 -17 2 -17 -6 0 -14 -1 -18 -2 -5 -2 -8 6 -8 17 0 11 -8
21 -19 23 -11 2 -25 9 -32 16 -33 28 -44 36 -53 36 -5 0 -26 15 -45 34 -20 18
-50 39 -66 46 -17 7 -30 18 -29 24 3 27 -4 35 -46 53 -41 16 -68 43 -45 43 6
0 10 4 10 10 0 5 -7 7 -15 4 -12 -5 -14 1 -10 27 l5 34 -11 -34 c-6 -21 -7
-37 -1 -43 5 -5 7 -19 4 -31 -5 -19 -7 -17 -18 13 -6 19 -10 46 -7 59 4 16 2
22 -6 17 -8 -5 -11 188 -11 767 0 425 3 777 7 780 9 10 436 7 498 -3z m2004
-275 c28 -37 34 -73 18 -126 -15 -49 -8 -79 19 -79 16 0 53 71 54 105 1 17 3
16 11 -5 18 -45 1 -136 -35 -182 -50 -67 -143 -123 -264 -161 -65 -21 -108
-40 -110 -49 -1 -8 15 -29 38 -47 46 -36 52 -71 22 -130 -18 -36 -42 -53 -42
-29 0 21 -46 80 -80 101 -82 52 -199 -39 -200 -155 0 -121 123 -210 271 -195
l57 6 6 -32 c10 -48 -12 -60 -101 -54 -55 3 -88 12 -135 35 -139 69 -189 141
-196 283 -4 77 -2 90 21 135 14 27 57 87 96 133 115 137 127 203 50 283 l-40
43 26 21 c36 29 92 45 119 34 32 -12 83 -73 91 -109 10 -45 -3 -107 -35 -171
-47 -94 -17 -105 100 -36 84 49 152 116 181 179 21 46 26 158 9 201 -8 22 -7
26 10 26 10 0 28 -11 39 -25z m-1169 -274 c0 -69 44 -71 64 -3 9 26 47 30 67
6 10 -13 10 -27 1 -72 -6 -30 -10 -58 -7 -60 2 -3 16 3 31 12 14 10 28 15 31
12 3 -3 9 -37 13 -77 10 -94 23 -107 83 -84 36 14 49 15 67 5 20 -11 22 -17
17 -66 -8 -77 -42 -138 -124 -225 -40 -42 -73 -79 -73 -81 0 -3 15 -22 34 -42
18 -21 45 -59 59 -85 l26 -47 -26 -40 c-40 -61 -40 -61 -77 -25 -37 36 -69 38
-74 4 -2 -11 8 -48 23 -82 24 -58 25 -63 10 -92 -27 -51 -53 -48 -84 9 -6 12
-21 22 -31 22 -16 0 -20 -7 -20 -33 0 -18 7 -42 15 -54 32 -45 35 -70 14 -97
-28 -36 -45 -32 -69 15 -22 43 -44 48 -64 16 -8 -13 -7 -24 7 -48 34 -60 22
-81 -86 -163 -27 -20 -52 -36 -57 -36 -5 0 -13 15 -19 33 -9 25 -8 45 4 87 26
92 30 140 12 140 -15 0 -38 -25 -62 -65 -10 -16 -14 -13 -39 19 -33 44 -30 58
40 157 48 68 56 99 25 99 -17 0 -111 -87 -119 -111 -8 -20 -33 -7 -58 31 -26
39 -26 40 -9 67 10 15 37 48 60 73 52 56 70 89 57 102 -16 16 -46 0 -91 -47
-23 -25 -46 -45 -51 -45 -14 0 -40 43 -40 66 0 15 17 34 53 60 82 60 167 145
167 167 0 11 -18 37 -40 57 -49 45 -78 109 -86 189 -9 78 2 93 62 84 53 -7 74
7 74 49 0 29 25 88 37 88 4 0 14 -7 24 -16 32 -29 49 -11 49 54 0 79 27 108
50 53 16 -40 38 -47 50 -15 6 14 10 33 10 43 0 24 9 31 42 31 26 0 28 -3 28
-39z m-931 -340 c20 -15 55 -38 78 -50 l43 -21 -7 -60 c-6 -58 4 -90 29 -90
21 0 39 74 36 146 l-3 73 21 -20 c20 -19 21 -22 7 -97 -18 -96 -20 -263 -5
-318 7 -22 50 -99 96 -171 74 -115 85 -139 91 -190 14 -120 66 -239 164 -371
l61 -82 -26 -10 c-14 -6 -28 -10 -32 -10 -3 0 -50 -21 -103 -46 -121 -56 -172
-58 -201 -8 -21 37 -49 135 -41 147 3 5 21 7 41 5 29 -2 37 1 40 15 5 26 -15
46 -83 78 -46 22 -66 38 -85 71 -35 61 -35 60 -4 58 73 -5 72 9 -6 87 -63 63
-77 100 -37 99 38 -2 24 43 -31 94 -83 76 -93 112 -30 108 61 -4 60 18 -2 87
-77 85 -79 97 -25 146 63 58 65 80 15 179 -38 75 -64 180 -45 180 4 0 24 -13
44 -29z m2146 -37 c14 -9 34 -31 45 -49 31 -51 10 -88 -78 -136 -40 -23 -92
-116 -92 -166 0 -72 51 -82 70 -14 15 58 35 71 97 61 65 -11 104 -31 153 -80
65 -65 75 -153 28 -261 -26 -61 -105 -119 -162 -119 -46 0 -36 18 14 25 47 6
100 36 100 56 0 5 -42 9 -92 9 l-93 0 50 24 c28 12 65 40 84 61 31 36 33 42
29 93 -9 102 -73 126 -202 77 -88 -33 -108 -32 -141 7 -25 30 -27 37 -23 104
4 52 11 82 28 110 27 44 152 214 157 214 2 0 15 -7 28 -16z m-805 -131 c0 -20
3 -24 9 -14 7 10 10 10 16 1 4 -7 1 -16 -6 -21 -11 -8 -11 -11 5 -20 15 -9 16
-13 5 -20 -11 -7 -11 -9 -1 -9 7 0 10 -5 7 -10 -4 -6 -1 -9 7 -8 7 2 12 -5 12
-14 -1 -10 3 -16 9 -15 6 1 15 -7 21 -18 18 -33 59 -75 72 -75 7 0 17 -6 21
-14 4 -8 29 -24 55 -36 27 -12 45 -26 42 -31 -3 -5 2 -6 10 -3 18 7 85 -13
107 -32 9 -8 19 -11 23 -7 4 5 20 9 34 9 15 1 38 4 52 8 23 5 22 5 -2 -6 -29
-12 -37 -26 -15 -25 43 1 57 -4 57 -22 0 -11 -8 -22 -17 -24 -11 -3 -7 -5 10
-6 15 0 27 4 27 9 0 6 10 10 23 9 l22 0 -22 -9 c-13 -5 -23 -14 -23 -21 0 -7
-10 -9 -27 -4 -39 9 -49 22 -24 30 12 3 21 11 21 18 0 8 -3 8 -12 -1 -7 -7
-17 -8 -28 -2 -12 7 -17 6 -16 -3 0 -6 -3 -12 -9 -12 -5 0 -9 6 -8 13 0 7 -5
11 -12 8 -8 -3 -30 -8 -49 -12 -29 -5 -36 -3 -36 10 0 9 -5 16 -11 16 -5 0 -7
-5 -3 -11 5 -9 -2 -10 -22 -6 -16 4 -105 10 -199 13 l-170 7 0 51 c0 50 -8 66
-56 115 -9 9 -24 28 -34 44 l-18 27 55 55 c38 38 60 53 72 49 11 -4 16 -1 16
14 0 11 -6 23 -12 25 -8 3 -6 6 5 6 12 1 17 -7 17 -26z m477 -493 c130 -37
151 -46 140 -58 -9 -12 -7 -18 13 -31 97 -61 139 -152 184 -394 21 -110 41
-171 75 -222 15 -22 33 -55 40 -73 8 -18 32 -46 55 -61 59 -42 87 -74 89 -107
2 -28 0 -29 -56 -38 -53 -8 -62 -13 -89 -50 -69 -93 -129 -251 -144 -380 -6
-53 -5 -58 12 -54 13 2 26 26 44 78 15 41 58 138 97 214 65 128 72 137 83 117
14 -27 30 -121 20 -121 -4 0 -13 7 -20 15 -17 20 -49 19 -57 -1 -3 -10 -1 -31
6 -48 7 -17 19 -55 28 -85 18 -68 8 -82 -40 -52 -19 11 -37 21 -41 21 -12 0
-6 -68 9 -96 19 -38 29 -89 20 -111 -6 -16 -9 -15 -28 8 -12 15 -32 32 -45 38
-19 10 -23 9 -33 -13 -9 -19 -8 -35 5 -72 17 -50 21 -119 8 -128 -4 -2 -27 1
-51 7 -43 12 -44 11 -71 -21 -15 -18 -33 -52 -40 -75 -7 -23 -21 -66 -33 -96
l-20 -55 -49 98 -50 99 40 41 c77 80 155 217 135 237 -11 11 -67 -46 -156
-161 -31 -41 -70 -84 -87 -95 -35 -24 -40 -46 -23 -105 7 -24 9 -47 5 -51 -12
-11 -124 -50 -129 -45 -5 5 40 174 57 214 5 12 16 22 23 22 28 0 105 60 135
106 20 29 51 108 79 194 52 166 62 188 111 249 l36 44 -32 61 c-18 34 -68 105
-111 159 -107 132 -137 182 -156 256 -14 53 -15 73 -4 131 16 92 8 204 -19
256 -21 41 -83 91 -100 80 -5 -3 -7 -28 -4 -56 4 -40 2 -50 -11 -50 -8 0 -20
7 -28 16 -50 60 -203 69 -331 19 -41 -16 -14 18 41 53 72 44 89 68 68 90 -14
13 -19 13 -49 -1 -18 -8 -71 -32 -117 -51 -47 -20 -103 -50 -125 -68 -51 -41
-38 -19 35 57 31 33 74 81 95 106 37 44 63 63 109 81 11 4 83 6 160 4 130 -3
151 -6 292 -46z m464 -262 c-10 -3 -21 -17 -24 -30 l-6 -23 19 25 c16 21 22
23 37 12 10 -6 28 -16 41 -22 12 -5 25 -18 29 -27 11 -33 36 -53 65 -53 26 0
28 -3 30 -42 l1 -43 6 45 c5 34 8 41 16 30 13 -20 20 -1935 7 -1970 -9 -24
-10 -22 -20 20 l-10 45 -2 -45 c-2 -32 -4 -37 -7 -17 -2 15 -11 27 -18 27 -8
0 -28 13 -45 30 -36 35 -81 60 -109 60 -29 0 -36 18 -9 22 20 4 18 6 -17 24
-22 10 -48 26 -57 34 -17 14 -17 15 -1 21 14 5 10 10 -22 25 -22 10 -55 34
-74 51 -41 40 -65 44 -59 8 6 -29 2 -31 -18 -10 -9 8 -11 15 -6 15 14 0 25 51
14 62 -14 14 7 86 33 114 14 15 21 32 18 44 -3 11 2 32 12 46 l17 26 22 -21
c37 -35 62 -27 100 32 90 143 174 354 200 507 34 203 30 399 -10 414 -9 3 -12
10 -9 16 3 5 0 7 -8 4 -20 -7 -59 37 -96 106 -28 54 -42 107 -82 305 -26 134
-26 129 -11 131 6 1 16 2 21 3 5 0 13 10 16 22 6 19 7 20 20 2 12 -15 11 -19
-4 -25z m-1224 -15 c-12 -20 -24 -62 -28 -93 -6 -47 -2 -66 22 -128 18 -47 27
-82 23 -98 -7 -29 -13 -29 -53 -6 -24 13 -35 14 -48 6 -29 -18 -27 -41 7 -93
29 -47 30 -51 19 -95 -6 -26 -15 -48 -19 -51 -4 -3 -19 4 -33 15 -70 55 -96
13 -52 -86 40 -89 32 -169 -13 -136 -44 31 -62 36 -78 20 -14 -13 -12 -22 13
-84 43 -109 34 -186 -19 -152 -36 23 -74 30 -87 14 -8 -10 -4 -27 19 -69 31
-59 40 -123 19 -144 -9 -9 -21 -5 -49 13 -36 24 -70 24 -70 0 0 -6 7 -24 16
-41 37 -69 45 -106 32 -143 -13 -34 -13 -34 -63 -28 -49 5 -50 5 -72 -32 -11
-20 -49 -68 -82 -107 -34 -38 -75 -89 -91 -113 l-29 -43 -10 38 c-6 21 -11 56
-11 78 0 22 -5 58 -10 80 l-10 40 59 53 c64 56 131 142 131 167 0 23 -14 18
-37 -13 -12 -16 -54 -51 -94 -78 -40 -27 -88 -62 -106 -78 -41 -36 -68 -104
-60 -151 5 -28 2 -37 -14 -45 -18 -10 -19 -6 -19 110 0 88 3 122 13 124 159
46 261 136 297 262 11 37 33 159 50 269 34 226 58 323 100 408 16 32 27 64 24
71 -3 7 43 48 108 96 62 47 160 129 218 182 58 53 106 97 107 97 1 1 -8 -16
-20 -36z m333 -18 c0 -3 -13 -23 -29 -45 -16 -22 -35 -63 -41 -92 -15 -62 -8
-208 15 -292 9 -32 14 -60 12 -62 -7 -7 -267 -28 -273 -21 -3 3 8 48 25 100
28 83 31 101 25 164 -6 63 -4 76 15 107 30 48 110 105 179 127 62 20 72 22 72
14z m205 -15 c0 -10 -14 -17 -44 -21 -39 -5 -71 -28 -71 -51 0 -4 18 -13 40
-19 58 -18 79 -45 86 -115 9 -87 -18 -145 -80 -176 -67 -32 -71 -63 -14 -89
59 -26 70 -59 104 -299 3 -21 -9 -36 -69 -86 -100 -84 -174 -184 -136 -184 14
0 52 32 173 147 l100 94 -12 67 c-7 37 -19 105 -27 152 -19 100 -13 180 15
205 18 16 18 15 8 -27 -23 -99 10 -225 86 -324 44 -57 47 -96 11 -120 -22 -15
-32 -15 -67 -5 -35 11 -43 10 -57 -3 -13 -14 -14 -20 -2 -49 19 -44 25 -93 13
-101 -5 -3 -26 1 -46 9 -19 8 -47 15 -61 15 -30 0 -32 -17 -10 -80 14 -39 14
-46 0 -67 -20 -30 -25 -29 -58 12 -48 60 -76 43 -56 -34 7 -27 9 -56 6 -65 -6
-16 -9 -16 -29 -2 -29 20 -67 20 -96 0 -12 -8 -44 -48 -71 -87 -50 -74 -87
-114 -96 -105 -3 3 6 59 20 124 14 66 25 122 25 126 0 4 26 28 58 53 64 52 96
89 106 123 11 35 -16 28 -69 -18 -26 -22 -64 -49 -86 -60 -86 -45 -139 -110
-139 -174 0 -19 -5 -38 -11 -42 -12 -7 -11 -2 18 134 l15 72 37 0 c53 0 94 35
169 142 70 101 105 138 169 180 22 14 44 35 48 47 3 11 -7 66 -23 123 -39 135
-42 148 -52 241 -10 89 0 192 26 256 26 65 149 132 149 81z m330 -640 c44 -47
83 -88 88 -91 17 -12 10 -45 -20 -89 -17 -25 -47 -90 -67 -145 -50 -136 -96
-247 -109 -263 -8 -10 -20 -3 -56 32 -50 50 -74 55 -122 30 -30 -15 -75 -54
-63 -54 4 0 1 -7 -6 -15 -7 -9 -19 -14 -27 -11 -8 4 -11 1 -7 -5 4 -8 -1 -9
-17 -5 -23 7 -24 7 -3 -6 21 -13 21 -13 -7 -43 -16 -16 -29 -25 -29 -19 0 6 7
17 15 24 10 9 12 17 5 30 -8 14 -4 21 15 34 14 9 29 14 34 12 5 -3 8 2 7 12 0
10 6 17 15 16 9 -1 16 4 16 11 0 14 41 73 68 97 11 10 26 15 33 13 7 -3 11 -1
8 4 -3 5 2 15 11 22 9 8 22 28 29 46 8 17 36 61 63 97 57 76 72 126 48 165
-57 94 -107 194 -116 229 -8 40 -7 43 17 56 25 13 27 12 62 -43 20 -31 72 -95
115 -141z m-530 20 l17 -51 -45 -52 c-25 -29 -63 -72 -86 -96 -23 -24 -41 -48
-41 -52 0 -14 -33 -20 -42 -7 -5 9 -8 9 -8 1 0 -6 -8 -10 -17 -8 -10 2 -18 4
-18 5 0 1 -27 4 -60 6 -76 6 -88 11 -81 29 3 8 0 15 -6 15 -6 0 -8 11 -5 30 4
17 2 32 -5 36 -8 5 -9 2 -5 -10 4 -9 3 -15 -1 -12 -5 3 -6 -8 -4 -25 2 -16 -2
-39 -11 -53 -10 -15 -12 -27 -6 -33 6 -6 4 -10 -6 -10 -8 0 -13 3 -10 5 3 3
-1 12 -8 20 -9 12 -9 14 0 9 13 -8 34 22 32 45 0 10 -2 10 -6 1 -2 -7 -9 -13
-14 -13 -5 0 -4 10 3 23 7 12 13 24 13 27 4 30 17 60 24 56 4 -3 6 5 4 17 -2
12 5 45 16 72 l19 50 132 7 c73 4 140 9 149 11 49 14 59 8 76 -43z"/>
<path d="M6601 11125 c-109 -68 -339 -125 -505 -125 -220 -1 -339 -28 -409
-94 -19 -18 -39 -26 -63 -26 -19 0 -76 -9 -127 -21 -57 -13 -108 -18 -134 -15
l-43 6 1 -193 0 -192 48 -150 48 -150 -56 -3 c-103 -6 -159 6 -201 44 -21 19
-43 48 -50 64 -22 52 -7 152 41 275 91 236 57 415 -94 492 -45 22 -60 25 -126
21 -138 -8 -217 -68 -228 -171 -8 -73 54 -179 130 -224 13 -7 13 -19 0 -88 -8
-44 -13 -116 -11 -161 4 -67 10 -93 40 -155 65 -136 151 -224 252 -255 28 -9
99 -19 158 -22 l107 -7 -42 -53 c-142 -178 -193 -236 -230 -263 -52 -37 -63
-55 -46 -75 11 -14 107 -14 329 0 10 1 16 -10 18 -30 3 -27 -4 -38 -45 -74
-87 -78 -219 -122 -292 -99 -124 39 -176 167 -116 285 14 27 21 52 16 57 -24
24 -154 -85 -215 -182 -43 -67 -62 -160 -49 -237 6 -35 18 -77 27 -95 13 -27
14 -35 1 -58 -36 -70 -38 -65 -89 217 -26 147 -55 306 -64 354 -18 99 -13 129
30 161 39 29 79 26 124 -11 21 -18 46 -32 56 -32 29 0 48 43 57 125 15 131
-14 270 -68 324 -11 11 -32 49 -46 83 -101 248 -305 451 -478 474 -61 9 -61
-3 -1 -64 54 -55 80 -108 94 -197 10 -63 5 -161 -10 -184 -5 -8 -33 6 -87 43
-81 56 -224 130 -275 141 -20 5 -29 2 -37 -14 -9 -16 -6 -29 19 -68 52 -82 93
-232 115 -418 l6 -50 -21 25 c-50 60 -73 80 -91 80 -23 0 -24 -11 -2 -75 15
-44 17 -116 17 -640 l1 -590 32 -150 c18 -82 62 -237 98 -343 35 -107 70 -224
77 -260 16 -95 46 -124 143 -137 89 -12 160 -27 173 -37 7 -6 12 -33 12 -63 0
-41 -10 -73 -44 -146 -73 -156 -108 -280 -211 -749 -25 -113 -53 -232 -63
-265 -17 -55 -20 -60 -50 -63 -25 -3 -40 5 -74 36 -83 75 -112 80 -129 20 -28
-105 -5 -255 57 -367 13 -24 24 -49 24 -55 0 -7 -22 -34 -50 -61 -60 -59 -67
-87 -46 -179 36 -153 150 -355 280 -493 51 -56 88 -41 56 21 -51 102 -53 253
-3 308 14 15 19 14 75 -22 144 -94 369 -141 429 -90 21 17 22 21 9 30 -8 5
-35 12 -60 16 -110 16 -142 119 -104 343 9 53 18 103 21 111 8 27 23 -12 23
-62 0 -26 5 -50 11 -53 32 -20 104 114 120 226 9 64 15 78 36 91 14 8 58 47
98 87 56 56 76 83 84 115 6 26 18 46 31 52 33 15 120 172 120 216 0 28 4 38
15 38 9 0 18 8 22 18 3 9 15 37 26 62 11 25 22 64 25 86 2 23 14 54 26 69 l22
27 40 -20 c73 -37 145 -130 190 -244 31 -79 30 -84 -6 -91 -16 -4 -30 -13 -30
-20 0 -15 41 -37 69 -37 25 0 30 -15 37 -123 8 -114 -10 -185 -61 -247 -38
-46 -43 -66 -20 -96 8 -10 15 -27 15 -36 0 -16 -12 -18 -118 -18 -134 0 -206
16 -323 74 -81 40 -106 43 -155 20 -39 -19 -43 -29 -73 -204 -31 -173 -39
-296 -36 -495 5 -308 54 -594 151 -883 19 -57 34 -105 32 -106 -2 -2 -84 0
-183 4 -153 5 -187 9 -227 28 -62 27 -62 45 -2 160 54 103 53 118 -8 163 -107
77 -269 77 -412 1 -83 -44 -178 -147 -226 -246 -29 -59 -40 -95 -38 -118 l3
-33 66 3 c38 2 70 -1 73 -6 3 -6 -12 -39 -34 -75 -52 -82 -80 -163 -87 -248
-5 -58 -2 -74 21 -125 30 -66 52 -94 74 -94 12 0 13 13 7 79 -8 94 1 116 53
131 74 20 242 7 242 -20 0 -4 -35 -23 -79 -43 -43 -19 -82 -40 -85 -46 -11
-18 13 -50 42 -56 15 -3 50 -12 77 -20 28 -8 68 -17 90 -20 22 -3 70 -22 107
-41 77 -40 266 -104 306 -104 15 0 38 -7 50 -16 64 -45 429 -71 574 -41 84 18
157 48 182 76 15 17 15 22 -4 66 -11 26 -29 58 -40 72 -29 38 -27 97 7 137 81
96 72 160 -48 343 -45 67 -66 111 -79 165 -67 265 -67 603 0 821 22 71 46 97
91 97 l27 0 -16 -67 c-19 -87 -22 -345 -4 -428 28 -130 78 -264 154 -409 144
-277 201 -400 206 -442 4 -34 -1 -53 -27 -96 -76 -133 -118 -336 -151 -723
-20 -232 -44 -416 -57 -439 -15 -28 -48 -56 -65 -56 -29 0 -76 50 -127 135
-79 130 -109 134 -214 28 -156 -158 -220 -295 -221 -473 -1 -93 17 -190 36
-190 10 0 23 28 40 90 l12 45 7 -92 c12 -155 56 -272 140 -367 31 -35 48 -46
70 -46 16 0 29 2 29 5 0 2 -13 30 -29 62 -16 32 -33 75 -36 96 -7 38 -6 40 65
110 l73 71 21 -76 c13 -42 38 -102 57 -134 72 -121 234 -255 327 -270 55 -9
56 11 2 59 -44 41 -80 104 -80 142 0 14 22 58 48 98 27 40 90 145 141 234 51
90 97 165 102 169 5 3 24 -3 42 -14 42 -26 134 -55 147 -47 6 3 7 29 4 63 -5
47 -2 66 14 98 11 21 26 59 33 84 7 25 39 113 72 195 82 207 117 319 117 371
0 29 6 50 18 62 11 11 22 30 26 43 34 123 35 130 22 168 -11 34 -11 40 7 62
19 23 19 35 14 211 -6 181 -6 188 19 260 43 124 16 208 -66 208 -44 0 -116 43
-153 92 -35 45 -64 111 -103 235 l-32 103 24 19 c20 15 41 20 97 19 80 0 165
25 228 66 47 32 94 125 110 221 24 142 -14 533 -76 779 l-22 89 32 76 c48 114
55 156 55 313 0 106 -6 178 -24 278 -29 159 -62 603 -52 690 4 33 13 80 21
105 10 36 10 45 0 45 -26 0 -66 -115 -164 -465 -46 -164 -79 -257 -90 -250
-14 8 -20 146 -10 227 5 44 21 109 35 146 14 37 33 101 43 142 10 41 34 131
54 200 56 199 69 268 74 390 7 166 -19 258 -109 378 -48 64 -68 110 -68 156 0
66 116 134 190 111 32 -10 63 -81 57 -130 -11 -80 23 -75 58 8 28 67 16 130
-46 233 -50 83 -103 131 -162 149 -134 40 -252 -5 -344 -128 -58 -80 -84 -167
-84 -282 -1 -138 15 -198 119 -462 l16 -43 -42 -87 c-76 -156 -118 -443 -109
-728 8 -219 27 -309 118 -560 231 -641 349 -1052 349 -1219 0 -168 -107 -226
-175 -96 -25 48 -55 166 -105 415 -28 138 -62 302 -75 365 -39 183 -71 415
-120 871 -24 233 -51 471 -60 529 -17 123 -19 214 -5 240 9 16 18 19 55 13 30
-4 45 -2 45 5 0 7 -16 58 -36 114 -36 102 -37 106 -41 293 -4 160 -1 228 21
425 14 129 30 279 36 333 9 88 30 157 47 157 3 0 44 -18 90 -41 87 -41 168
-59 197 -42 16 9 15 11 -2 34 -37 46 -82 144 -103 224 -28 103 -30 312 -6 425
22 99 42 118 139 135 78 13 125 33 148 60 13 15 11 20 -15 38 -76 54 -148 166
-161 252 -5 37 -3 41 28 59 59 35 126 106 144 153 12 31 18 76 18 151 1 93 -2
113 -22 154 -13 27 -35 57 -49 68 l-25 19 35 43 c32 40 67 119 67 154 0 8 20
55 45 104 63 125 62 128 -24 75z m-111 -129 c0 -24 -48 -73 -88 -89 -20 -8
-73 -20 -117 -26 -95 -14 -165 -38 -165 -56 0 -22 17 -27 57 -15 21 5 85 17
143 25 57 8 121 24 142 35 50 26 54 25 32 -7 -22 -34 -43 -52 -116 -100 -75
-49 -75 -63 2 -63 51 0 64 -4 91 -28 39 -35 54 -102 39 -184 -27 -149 -107
-248 -200 -248 -36 0 -40 -22 -10 -60 11 -14 20 -41 20 -60 1 -47 39 -137 85
-200 20 -28 34 -54 31 -58 -12 -12 -131 -14 -171 -3 -21 6 -41 8 -44 6 -2 -3
-4 -22 -4 -43 0 -20 -4 -75 -9 -122 -22 -198 -8 -411 36 -553 14 -47 14 -48
-7 -41 -97 30 -154 82 -175 159 -13 47 -34 59 -50 28 -5 -10 -10 -74 -10 -143
0 -123 -7 -178 -57 -455 -46 -250 -45 -607 1 -789 8 -32 13 -61 10 -64 -12
-11 -147 114 -218 203 -49 60 -178 289 -199 353 -18 53 -21 80 -16 144 5 77 5
78 -20 84 -16 4 -61 -5 -121 -25 -200 -64 -200 -71 -2 128 223 224 362 407
472 626 45 89 108 246 108 270 0 29 -20 15 -51 -35 -36 -59 -46 -65 -22 -12
12 26 18 76 22 172 l6 135 27 13 c53 25 53 45 -1 88 -106 86 -148 201 -96 264
25 31 25 49 0 66 -23 15 -27 15 -51 0 -35 -24 -39 -40 -25 -110 17 -86 52
-156 102 -208 l44 -46 -35 -18 c-34 -19 -34 -20 -35 -84 0 -54 -5 -72 -28
-107 -30 -48 -45 -52 -71 -24 -41 45 -124 36 -301 -34 -88 -35 -136 -48 -191
-52 -56 -5 -74 -3 -74 7 0 7 33 49 72 94 l73 81 110 0 c137 0 194 18 252 78
57 59 75 100 76 172 1 110 -65 185 -218 247 -91 37 -139 80 -148 132 -8 51 4
246 15 246 6 0 7 -20 3 -50 -7 -49 -6 -50 19 -50 18 0 29 7 35 23 5 12 27 37
50 55 24 20 41 41 41 54 0 18 -4 20 -32 13 -18 -4 -52 -11 -75 -15 l-43 -7 0
38 c0 32 4 39 23 43 55 12 137 27 197 35 51 7 73 15 96 37 58 54 117 67 344
75 188 6 213 9 305 37 121 36 115 35 115 18z m-1489 -8 c88 -30 125 -91 123
-203 -1 -68 -6 -88 -81 -302 -18 -51 -26 -53 -43 -14 -12 30 -35 46 -51 35
-16 -9 -10 -110 10 -174 18 -59 53 -110 74 -110 5 0 18 -12 29 -26 26 -33 74
-62 171 -103 42 -19 77 -38 77 -44 0 -14 -113 1 -171 22 -65 25 -115 66 -158
130 -60 89 -83 162 -84 261 0 111 21 189 83 308 62 117 64 154 11 189 -19 13
-49 23 -69 23 -58 0 -94 -50 -57 -80 24 -20 17 -35 -17 -35 -57 0 -43 -64 18
-79 25 -7 30 -21 14 -46 -22 -36 -99 61 -100 127 0 59 33 115 75 126 38 9 112
7 146 -5z m-537 -458 c43 -76 116 -226 116 -240 0 -5 -13 -23 -30 -40 -40 -41
-40 -70 1 -70 22 0 43 12 76 44 l46 43 -17 54 c-10 30 -38 92 -62 139 -25 47
-38 76 -29 65 22 -27 61 -103 100 -195 l32 -75 -73 -68 c-47 -44 -82 -87 -98
-120 -24 -51 -25 -55 -15 -182 9 -125 36 -343 45 -357 2 -4 9 -60 14 -125 5
-65 14 -149 19 -188 7 -52 6 -98 -6 -180 -8 -60 -16 -167 -17 -237 -3 -124 -3
-127 -35 -177 -49 -76 -73 -161 -73 -261 -1 -106 18 -171 83 -291 46 -84 49
-93 34 -108 -14 -15 -19 -14 -58 8 -29 17 -72 28 -135 37 -107 13 -122 23
-132 86 -4 24 -11 62 -15 86 l-8 42 41 0 c23 0 44 5 48 11 3 6 -16 32 -43 58
-73 70 -122 146 -147 228 -7 21 -4 22 31 20 54 -3 54 22 2 81 -50 56 -95 149
-104 215 -4 26 -5 47 -2 47 2 0 21 -7 40 -15 42 -17 103 -20 112 -5 4 6 -18
37 -48 70 -74 79 -109 155 -115 248 -2 39 -1 72 4 72 5 -1 20 -7 34 -15 29
-17 76 -19 85 -5 4 6 -10 27 -30 48 -70 72 -120 219 -101 296 l6 25 36 -24
c41 -28 73 -40 82 -31 7 8 -22 61 -53 96 -34 38 -46 84 -51 200 l-6 105 66
-69 c40 -43 70 -66 75 -60 17 18 -40 407 -80 538 -10 33 -17 61 -16 63 2 1 43
-50 91 -114 l89 -117 -2 -84 c-2 -102 7 -174 23 -169 22 7 48 102 53 192 l5
91 -51 67 c-28 37 -48 67 -43 67 9 0 99 -92 129 -132 17 -23 19 -35 12 -70
-16 -86 -7 -478 11 -478 11 0 38 154 50 290 6 63 16 143 21 178 11 74 7 85
-62 159 -45 47 -48 55 -41 85 4 18 7 88 7 154 l0 121 21 -31 c12 -17 38 -60
58 -96z m327 -432 c14 -90 5 -163 -19 -152 -49 20 -146 20 -194 -1 -15 -6 -18
-2 -18 24 0 41 28 95 79 151 33 37 42 42 51 30 15 -23 12 -81 -5 -100 -24 -27
-8 -53 28 -46 48 10 57 30 51 126 -5 100 9 82 27 -32z m763 -520 c-43 -86 -80
-136 -143 -197 -48 -46 -44 -64 7 -37 52 27 88 63 172 176 46 60 84 110 86
110 5 0 -19 -51 -56 -120 -41 -77 -183 -224 -282 -293 -193 -135 -555 -263
-598 -211 -19 22 3 56 66 107 29 23 53 47 54 53 0 6 -12 21 -26 35 -82 75 -86
221 -8 339 l28 43 16 -64 c21 -81 31 -99 77 -139 63 -56 116 -73 199 -67 140
10 259 94 389 271 27 36 50 66 52 66 2 0 -13 -33 -33 -72z m75 -189 c-29 -46
-61 -95 -71 -108 -21 -28 -23 -51 -4 -51 18 0 67 55 140 157 33 46 61 81 63
79 3 -2 0 -12 -6 -23 -25 -44 -111 -237 -107 -240 6 -7 86 89 128 155 23 34
42 62 45 62 4 0 -22 -55 -59 -125 -25 -47 -158 -231 -238 -330 -80 -98 -247
-259 -367 -356 -57 -45 -103 -85 -103 -89 0 -13 27 -30 60 -40 36 -10 213 17
289 44 56 20 54 21 46 -16 -26 -118 -121 -279 -239 -406 -56 -60 -168 -152
-186 -152 -4 0 1 24 11 53 23 65 25 205 5 332 -36 222 -30 293 29 408 36 71
44 107 23 107 -79 1 -198 23 -245 45 -31 14 -54 28 -51 30 3 3 66 23 139 44
307 88 372 125 581 333 87 86 158 162 158 169 0 7 2 10 6 7 3 -3 -19 -43 -47
-89z m844 -543 c18 -7 54 -37 81 -67 l49 -54 -54 -6 c-74 -7 -121 -30 -165
-78 -27 -30 -40 -39 -49 -31 -23 19 -38 96 -30 155 7 56 1 65 -27 43 -41 -33
-54 -182 -24 -267 24 -66 77 -148 150 -231 76 -86 85 -110 93 -238 8 -123 -9
-215 -68 -392 -53 -157 -93 -260 -85 -220 56 297 50 332 -105 640 -85 171
-107 230 -119 335 -18 149 48 312 154 381 64 41 144 54 199 30z m-1576 -80
c34 -15 64 -35 68 -44 3 -9 0 -56 -6 -104 -11 -73 -10 -109 2 -206 8 -64 14
-178 14 -252 0 -130 -1 -137 -31 -201 -25 -52 -44 -75 -90 -110 -76 -58 -129
-126 -113 -145 17 -21 29 -17 66 21 44 45 126 100 238 160 149 80 190 110 345
254 67 62 99 74 132 49 9 -7 50 -58 91 -113 76 -103 148 -182 226 -248 l44
-38 33 -322 c69 -683 164 -1348 263 -1842 55 -278 88 -367 158 -424 51 -42 93
-49 135 -23 42 26 73 68 87 118 13 46 14 202 2 259 -87 411 -120 523 -226 770
-86 202 -171 485 -212 705 -12 69 -17 145 -17 275 0 185 1 187 59 443 22 95
30 88 10 -9 -18 -89 -24 -208 -10 -210 10 -1 43 94 81 229 9 34 19 60 22 58 2
-3 -3 -26 -11 -53 -34 -104 -45 -313 -17 -313 10 0 15 16 25 75 4 22 14 63 23
90 l17 50 3 -37 c2 -21 -6 -80 -17 -133 -35 -161 -23 -213 25 -112 14 28 23
41 19 27 -66 -259 -71 -559 -14 -772 26 -95 38 -113 70 -105 24 6 25 8 25 119
0 124 13 185 83 388 38 112 39 114 46 77 4 -21 5 -95 3 -165 -4 -104 -12 -152
-42 -264 -36 -137 -44 -201 -27 -227 15 -24 28 -3 34 54 3 30 19 86 35 123 17
37 33 76 37 87 13 37 27 -34 21 -110 -6 -82 -18 -117 -68 -205 -40 -71 -57
-130 -36 -130 7 0 36 33 63 73 l50 72 3 -38 c4 -49 -21 -134 -68 -228 l-38
-75 20 -90 c65 -298 102 -573 96 -713 -2 -66 -8 -96 -26 -131 -47 -87 -96
-114 -216 -114 l-88 -1 -48 53 c-57 64 -60 75 -116 486 -32 239 -68 449 -80
468 -17 27 -24 -5 -24 -105 0 -135 8 -207 60 -527 44 -271 60 -398 60 -479 0
-101 94 -366 154 -438 41 -49 126 -87 182 -80 40 4 46 2 54 -18 10 -26 0 -71
-30 -137 -11 -24 -20 -58 -20 -75 l0 -33 -45 7 c-29 4 -50 1 -60 -7 -22 -18
-19 -24 20 -43 50 -24 95 -106 95 -176 0 -47 -2 -52 -17 -46 -36 14 -110 18
-117 6 -4 -7 18 -39 52 -77 67 -73 77 -97 62 -154 -12 -46 -25 -49 -85 -20
-40 19 -105 27 -105 13 0 -5 23 -35 50 -68 28 -33 58 -79 67 -103 16 -42 15
-47 -2 -99 -10 -30 -22 -56 -26 -59 -4 -2 -33 7 -65 21 -76 34 -129 42 -137
22 -4 -10 8 -24 34 -43 22 -15 55 -44 74 -66 44 -47 45 -86 8 -162 l-26 -54
-46 38 c-51 42 -121 64 -121 37 0 -9 15 -35 33 -59 50 -67 64 -91 76 -132 8
-32 7 -45 -9 -77 -11 -21 -20 -47 -20 -58 0 -26 -10 -51 -21 -51 -4 0 -30 14
-56 30 -81 51 -79 53 -198 -175 -37 -71 -83 -149 -102 -173 -19 -23 -50 -68
-69 -99 l-34 -56 -20 47 c-12 25 -27 81 -35 124 l-13 77 30 34 c17 19 40 56
51 83 11 26 24 48 28 48 5 0 9 7 9 15 0 25 -12 18 -82 -52 l-68 -68 -25 26
-26 25 61 49 c86 69 165 162 200 236 53 113 30 153 -25 44 -36 -72 -103 -139
-223 -225 -67 -48 -92 -72 -96 -92 -3 -16 -13 -39 -21 -52 -15 -23 -175 -153
-175 -143 0 3 7 42 16 87 21 112 48 181 94 239 39 49 40 50 95 50 42 0 67 6
100 26 25 14 45 29 45 33 0 4 -48 5 -107 4 -94 -3 -108 -2 -120 14 -22 30 -16
34 50 34 76 0 204 34 234 62 55 51 75 158 93 478 13 232 32 360 71 490 39 126
49 150 64 150 23 0 45 -30 45 -63 0 -67 30 -72 56 -11 40 95 -12 267 -188 619
-183 366 -222 481 -240 706 -15 195 -2 252 127 549 20 47 45 117 56 156 25 91
39 277 29 387 -10 107 -17 130 -36 119 -11 -6 -15 -45 -18 -182 -2 -96 -7
-188 -12 -203 l-9 -28 -50 68 c-27 37 -52 70 -56 73 -11 9 -29 48 -29 63 0 8
12 32 27 53 62 90 82 318 43 482 -39 161 -150 351 -230 392 -22 11 -40 25 -40
30 0 16 64 58 100 65 19 3 57 13 83 22 40 12 48 19 45 36 -3 19 -9 22 -55 22
-29 -1 -53 3 -53 8 0 6 20 28 45 50 51 46 56 62 20 71 -20 5 -25 13 -25 39 0
43 25 132 46 165 19 31 64 71 80 72 17 0 33 21 27 36 -15 39 -112 -8 -153 -73
-16 -25 -39 -76 -51 -112 -46 -144 -49 -150 -103 -186 -57 -38 -81 -66 -120
-143 l-26 -52 -40 25 c-75 47 -130 43 -91 -6 10 -13 31 -49 47 -79 25 -47 29
-67 29 -132 0 -58 -4 -81 -16 -93 -15 -15 -21 -12 -79 34 -63 51 -120 69 -120
38 0 -8 25 -51 55 -97 70 -107 74 -128 41 -185 l-27 -45 -47 34 c-61 43 -106
66 -132 66 -31 0 -24 -32 16 -71 42 -40 74 -98 74 -134 0 -30 -42 -100 -79
-132 l-26 -23 -40 44 c-39 43 -72 66 -94 66 -15 0 -14 -41 3 -81 21 -52 29
-161 16 -224 -6 -30 -14 -55 -18 -55 -3 0 -27 23 -52 50 -64 69 -76 66 -84
-17 -4 -38 -14 -118 -22 -179 -9 -60 -14 -145 -12 -187 1 -42 1 -77 -2 -77
-14 0 -95 79 -143 138 l-54 67 19 55 c23 68 43 239 30 252 -6 6 -22 -26 -42
-89 -49 -147 -76 -194 -95 -163 -3 5 14 78 39 162 49 167 66 249 66 315 0 37
-3 43 -20 43 -26 0 -37 -28 -49 -129 -6 -44 -24 -120 -40 -168 -16 -48 -39
-119 -51 -158 -13 -38 -31 -88 -42 -109 -23 -44 -20 -54 38 -142 l35 -52 -31
-48 c-16 -26 -30 -55 -31 -63 -1 -29 -58 138 -71 204 -11 60 -10 68 9 103 12
20 31 64 43 97 13 33 26 64 31 69 13 15 11 26 -5 26 -8 0 -37 -36 -65 -80 -46
-72 -54 -80 -82 -80 l-32 0 27 21 c42 33 116 144 148 222 16 39 49 150 73 247
25 96 54 200 66 230 12 30 34 111 49 180 55 246 139 504 248 765 56 132 80
212 142 479 31 130 50 191 71 224 16 25 29 52 29 58 0 52 -81 -21 -124 -111
-16 -35 -38 -119 -58 -218 -17 -89 -34 -166 -39 -171 -10 -11 -59 68 -76 123
-27 92 -10 233 47 377 36 91 53 111 135 167 33 22 67 49 75 59 8 10 17 17 20
15 3 -1 33 -15 67 -31z m-727 -2205 c0 -21 -44 -159 -62 -194 -19 -38 -21 -40
-34 -22 -14 19 -19 145 -8 201 5 28 7 29 55 26 27 -2 49 -7 49 -11z m900 -270
c156 -63 204 -74 320 -75 62 -1 120 5 142 12 47 17 69 6 90 -45 18 -42 43
-191 34 -200 -3 -4 -6 3 -6 14 0 19 -17 33 -40 33 -9 0 -44 -100 -55 -158 -6
-27 -2 -38 14 -56 l22 -23 -40 -6 c-22 -3 -66 -17 -98 -32 -76 -36 -188 -149
-203 -206 -8 -27 -16 -39 -29 -39 -10 0 -24 -7 -31 -15 -14 -17 -4 -55 16 -55
8 0 14 -10 14 -24 0 -18 -6 -25 -22 -28 -38 -5 -34 -40 7 -66 41 -26 43 -53 5
-62 -39 -9 -37 -40 4 -75 39 -32 42 -65 6 -65 -30 0 -34 -32 -7 -55 13 -11 27
-28 30 -37 9 -24 24 -22 38 4 13 24 14 71 10 288 -4 152 7 209 45 248 16 16
17 14 10 -23 -38 -217 -45 -432 -21 -603 27 -188 62 -289 134 -384 77 -103 99
-186 63 -239 -56 -83 -62 -97 -62 -132 0 -27 12 -58 40 -105 l41 -67 -41 -17
c-91 -39 -250 -64 -250 -40 0 5 11 19 25 32 15 14 25 33 23 45 -4 30 -41 30
-69 0 -39 -43 -116 -75 -181 -75 -32 0 -58 4 -58 8 0 5 16 22 35 39 39 35 47
73 15 73 -11 0 -47 -14 -81 -32 -49 -26 -72 -32 -123 -32 -80 0 -95 9 -65 40
23 24 20 50 -6 60 -8 3 -34 -3 -58 -15 -45 -22 -111 -27 -136 -12 -12 8 -8 15
17 36 64 54 28 90 -53 54 -38 -17 -60 -20 -104 -16 -67 7 -133 25 -127 35 3 4
24 18 49 30 53 26 80 54 75 79 -2 10 -27 30 -58 46 -53 28 -59 28 -182 25
l-126 -4 16 41 c21 54 65 109 108 136 l36 22 21 -26 c12 -14 38 -33 57 -43 36
-18 142 -25 156 -11 16 16 -14 42 -62 54 -62 16 -93 32 -106 56 -15 29 -4 30
43 6 91 -46 219 -78 377 -94 48 -5 62 -3 62 8 0 16 -59 37 -196 71 -119 29
-198 63 -265 111 -58 42 -83 43 -150 10 -46 -24 -55 -25 -106 -15 -31 5 -58
11 -59 13 -7 7 74 82 130 120 l59 40 41 -45 c48 -53 111 -98 137 -98 11 0 19
3 19 6 0 3 -29 40 -65 82 -36 41 -65 79 -65 83 0 3 9 9 20 12 15 4 34 -12 85
-74 73 -89 148 -152 215 -183 38 -17 72 -21 225 -26 190 -6 192 -6 318 -72 34
-17 30 22 -11 110 -122 266 -204 610 -216 917 -11 256 26 687 62 728 8 9 18
17 21 17 4 0 49 -17 101 -39z m-779 -241 c10 -6 28 -29 39 -51 19 -36 38 -57
140 -148 l35 -32 -40 16 c-66 26 -131 73 -190 137 -45 48 -53 63 -44 74 14 17
33 18 60 4z m200 -1031 c21 -7 48 -22 59 -34 l21 -22 -31 -46 c-17 -25 -35
-60 -41 -76 -6 -17 -16 -31 -21 -31 -20 0 -155 157 -144 167 3 4 36 -6 72 -20
50 -21 69 -25 84 -17 11 6 20 17 20 24 0 18 -33 46 -66 56 -19 5 -22 9 -10 9
10 1 36 -4 57 -10z m849 -2181 c0 -4 -15 -31 -33 -60 -51 -82 -96 -208 -97
-273 -1 -19 -1 -19 -12 -1 -14 24 -5 190 12 231 28 66 36 82 63 123 l29 44 19
-29 c10 -15 19 -31 19 -35z"/>
<path d="M5747 10777 c-28 -12 -167 -145 -167 -159 0 -18 31 -20 55 -4 14 9
25 12 25 7 0 -19 85 -42 145 -39 l60 3 5 42 5 42 33 -39 c18 -22 31 -44 28
-49 -13 -20 -95 -31 -163 -21 -98 14 -155 12 -181 -6 -42 -29 -28 -42 41 -37
40 3 84 -1 123 -11 98 -25 162 -18 224 25 14 9 47 20 74 24 63 9 76 14 76 31
0 9 -11 14 -27 14 -40 0 -82 29 -142 98 -73 84 -143 110 -214 79z"/>
<path d="M6285 10483 c-62 -71 -75 -95 -75 -133 1 -43 18 -67 57 -80 35 -13
71 -2 121 37 28 21 33 30 30 61 -3 34 -6 37 -35 40 -38 4 -40 15 -13 60 16 27
18 37 9 48 -21 26 -53 15 -94 -33z"/>
<path d="M4418 1471 c-48 -14 -90 -30 -95 -34 -13 -14 21 -27 73 -27 48 0 52
-2 57 -27 9 -46 8 -517 -1 -531 -5 -7 -31 -19 -57 -26 -52 -13 -73 -36 -33
-36 13 -1 77 -2 143 -3 66 -2 128 -1 138 1 30 8 13 25 -37 38 -26 7 -49 14
-51 16 -2 2 -5 145 -6 318 0 172 -3 319 -6 327 -7 18 -23 16 -125 -16z"/>
<path d="M4932 1486 c-83 -29 -131 -114 -117 -205 5 -37 16 -55 50 -88 l43
-41 -44 -28 c-136 -86 -99 -307 58 -344 108 -26 222 12 271 92 57 92 41 225
-33 266 -67 37 -67 36 -22 76 48 44 67 92 58 149 -15 92 -73 138 -173 136 -32
0 -73 -6 -91 -13z m129 -52 c72 -37 78 -179 9 -227 -21 -14 -27 -14 -59 -1
-80 34 -120 104 -100 177 17 64 83 86 150 51z m-22 -335 c52 -26 67 -39 82
-73 50 -111 -16 -219 -123 -202 -63 10 -98 33 -119 79 -35 78 -20 161 37 206
35 28 50 27 123 -10z"/>
<path d="M5482 1486 c-81 -29 -130 -116 -117 -205 6 -37 15 -54 52 -88 l44
-42 -28 -14 c-87 -46 -119 -126 -92 -232 41 -163 310 -183 404 -30 26 42 30
58 30 120 0 80 -17 116 -67 143 -65 37 -65 36 -20 76 48 44 66 91 58 150 -14
92 -70 137 -173 135 -32 0 -73 -6 -91 -13z m129 -52 c72 -37 78 -179 9 -227
-21 -14 -27 -14 -59 -1 -43 17 -101 76 -102 104 -5 70 0 90 26 115 29 29 80
33 126 9z m-22 -335 c52 -26 67 -39 82 -73 31 -69 19 -146 -29 -181 -34 -25
-113 -26 -160 -1 -61 32 -92 148 -57 216 18 34 61 70 85 70 9 0 45 -14 79 -31z"/>
<path d="M6203 1487 c-40 -15 -47 -22 -115 -122 -129 -188 -219 -359 -203
-385 4 -6 63 -10 151 -10 l145 0 -3 -67 c-3 -65 -4 -67 -35 -77 -40 -14 -51
-25 -35 -35 15 -9 239 -8 248 1 11 12 -6 26 -40 32 -40 8 -46 19 -46 92 l0 54
43 0 c36 0 45 5 65 33 l22 32 -62 5 -63 5 -3 228 c-3 252 1 239 -69 214z m-23
-267 l0 -181 -97 3 c-84 3 -98 6 -101 20 -5 24 174 338 193 338 3 0 5 -81 5
-180z"/>
<path d="M2965 10706 c-38 -16 -65 -43 -65 -62 0 -10 13 -14 45 -14 60 0 98
-21 119 -64 35 -74 8 -164 -71 -237 -64 -59 -73 -54 -73 40 0 68 -4 83 -26
117 -52 77 -84 98 -164 108 -87 10 -155 -7 -234 -61 -84 -57 -116 -91 -116
-120 0 -26 2 -27 68 -12 62 15 113 5 152 -27 25 -21 30 -33 30 -67 -1 -55 -13
-75 -87 -142 -133 -120 -179 -315 -107 -462 48 -100 176 -190 322 -228 51 -13
77 -14 134 -6 79 11 99 5 134 -37 18 -22 29 -26 71 -25 27 0 69 10 93 21 76
34 84 34 109 8 27 -28 23 -52 -15 -87 -24 -22 -33 -24 -132 -23 -89 0 -132 7
-257 38 -172 43 -270 56 -446 56 l-125 0 0 48 c1 43 -4 55 -39 96 -22 27 -49
61 -61 77 l-20 28 57 61 c34 35 73 91 94 133 35 71 63 191 52 221 -9 22 -79
38 -137 30 l-50 -7 0 31 c0 42 -33 144 -58 179 -11 16 -44 42 -73 58 -45 24
-67 29 -151 33 -98 5 -99 4 -173 -32 -86 -42 -134 -92 -177 -183 l-29 -62 -61
-7 c-71 -8 -78 -19 -78 -124 0 -88 30 -186 76 -246 l36 -47 -38 -35 c-57 -50
-125 -92 -150 -92 -13 0 -24 -8 -27 -19 -7 -27 12 -122 29 -149 9 -13 14 -33
12 -45 -2 -16 -14 -5 -53 54 -67 98 -86 142 -92 211 -8 85 0 102 71 153 35 25
67 52 70 61 19 48 5 127 -44 253 -27 71 -52 147 -56 170 -4 23 -11 41 -16 41
-14 0 -57 -50 -85 -98 -30 -50 -37 -47 -83 32 -16 29 -39 61 -50 71 -27 25
-34 14 -51 -74 -20 -110 -21 -111 -58 -58 -18 26 -34 47 -36 47 -2 0 -11 -26
-21 -57 -27 -87 -25 -259 4 -337 12 -32 32 -72 46 -90 29 -39 22 -57 -35 -86
-47 -24 -46 -21 -19 -214 37 -260 95 -450 165 -542 47 -61 58 -83 110 -222 29
-75 54 -125 70 -139 39 -35 106 -31 215 12 96 37 110 41 110 25 0 -5 -13 -52
-30 -102 -18 -57 -38 -154 -51 -248 -11 -85 -27 -184 -35 -219 -16 -72 -64
-168 -99 -201 l-24 -22 -43 35 c-60 48 -101 67 -146 67 -46 0 -97 -31 -129
-78 -20 -31 -73 -176 -73 -202 0 -7 -14 -42 -30 -80 -53 -121 -32 -141 71 -68
42 29 63 38 70 31 8 -8 6 -47 -6 -135 -24 -169 -24 -173 -1 -173 12 0 49 35
96 90 42 50 82 90 90 90 7 0 36 -52 66 -115 29 -63 59 -115 65 -115 7 0 19 27
29 60 23 84 40 113 123 208 40 46 84 98 98 116 23 29 28 31 54 21 51 -19 71
-6 106 68 98 210 292 673 332 793 4 13 31 17 154 23 81 4 161 8 177 9 26 2 31
-3 47 -48 27 -78 25 -88 -40 -157 -32 -35 -76 -82 -96 -105 -33 -38 -43 -43
-79 -43 -23 1 -68 7 -100 15 -56 13 -61 13 -88 -7 -16 -11 -48 -43 -70 -71
-46 -59 -162 -283 -153 -297 9 -14 56 -11 85 5 14 8 28 14 33 15 16 0 5 -47
-29 -122 -28 -62 -35 -87 -29 -114 3 -19 12 -34 18 -34 7 0 49 32 92 71 44 39
81 66 83 61 2 -6 -4 -34 -12 -63 -9 -29 -16 -68 -16 -86 0 -28 4 -33 24 -33
38 0 134 71 240 179 93 96 99 100 119 86 12 -8 27 -15 34 -15 22 0 154 104
213 166 31 33 72 74 92 92 20 18 40 43 44 55 4 12 25 42 46 67 47 53 78 110
78 143 0 13 -25 63 -56 111 -85 135 -108 223 -63 247 12 6 24 7 28 2 4 -4 23
-33 44 -63 20 -30 80 -100 132 -155 97 -103 114 -137 80 -165 -19 -16 -69
-122 -110 -235 -18 -50 -47 -119 -64 -153 -35 -70 -41 -70 -96 -12 -45 48 -59
52 -102 35 -45 -18 -158 -142 -216 -237 -38 -63 -64 -135 -52 -146 3 -4 34 4
68 16 65 23 102 28 111 13 6 -9 -36 -170 -59 -225 -16 -38 -20 -76 -7 -76 4 0
37 26 74 58 52 45 89 67 163 96 l95 37 32 -37 c18 -20 50 -60 70 -88 53 -72
88 -108 102 -103 6 2 10 13 8 23 -14 89 -13 110 3 172 10 37 26 76 37 88 10
12 21 37 25 57 3 20 14 44 24 53 17 15 20 15 48 -5 16 -12 35 -21 43 -21 19 0
79 94 143 225 91 186 129 332 141 542 8 143 -3 196 -45 218 -45 23 -108 102
-131 164 -12 31 -33 112 -47 181 -13 69 -33 150 -43 180 -22 65 -25 61 85 117
82 41 100 55 130 104 49 76 67 190 44 273 -16 56 -89 130 -172 171 -38 19 -76
35 -84 35 -10 0 -4 14 18 41 27 34 34 53 37 99 6 87 -8 117 -104 211 l-86 84
28 20 c53 38 114 98 136 134 20 31 23 50 23 136 0 91 -2 104 -28 147 -34 59
-87 111 -135 134 -48 24 -185 30 -227 10z"/>
<path d="M8175 10110 c-3 -5 -2 -18 3 -27 5 -10 13 -38 17 -63 4 -25 12 -51
17 -57 24 -29 98 -5 98 31 0 7 9 25 21 40 27 34 16 50 -28 41 -28 -5 -43 -1
-74 19 -43 29 -45 30 -54 16z"/>
<path d="M7796 10008 c-9 -12 -16 -41 -16 -64 0 -37 7 -49 60 -108 38 -42 60
-75 60 -90 0 -13 7 -29 15 -36 11 -9 15 -33 15 -85 0 -76 12 -99 55 -107 16
-3 21 -13 25 -58 3 -30 14 -71 26 -90 30 -51 60 -47 113 14 36 41 42 55 39 83
-4 32 0 37 32 34 9 -1 33 16 54 38 35 36 38 43 34 83 -3 27 1 59 12 88 10 25
21 53 24 62 4 14 13 16 54 11 46 -5 52 -3 91 32 38 35 41 41 41 89 0 104 -48
111 -131 17 -30 -34 -60 -58 -77 -61 -25 -5 -27 -9 -27 -58 0 -59 -18 -82 -62
-82 -23 0 -93 59 -93 79 0 5 14 19 30 31 36 26 41 65 9 75 -12 4 -45 4 -75 0
-63 -8 -68 -19 -28 -77 25 -35 26 -39 11 -62 -22 -34 -98 -62 -126 -47 -30 16
-26 50 10 87 35 36 34 64 -3 64 -13 0 -28 4 -35 8 -16 10 -33 57 -33 92 0 49
-9 60 -51 60 -28 0 -42 -6 -53 -22z"/>
<path d="M9147 6286 c-47 -18 -77 -43 -77 -67 0 -15 6 -17 29 -13 37 8 94 -19
117 -54 12 -18 18 -47 19 -83 0 -50 -5 -63 -39 -113 -33 -48 -88 -96 -110 -96
-4 0 -5 14 -1 31 19 88 -31 210 -103 252 -42 24 -136 33 -199 18 -45 -11 -168
-91 -200 -131 -15 -18 -28 -59 -21 -66 3 -2 32 2 64 9 75 17 125 6 159 -35 46
-55 29 -117 -52 -188 -103 -90 -148 -202 -141 -348 5 -94 18 -129 74 -198 44
-55 122 -105 214 -139 68 -25 83 -27 169 -21 l94 6 32 -35 c26 -29 38 -35 73
-35 24 0 70 11 104 25 76 31 84 31 104 0 14 -22 14 -26 -2 -54 -41 -69 -159
-73 -399 -11 -147 38 -175 42 -350 50 -104 5 -192 9 -194 9 -2 1 -1 15 3 31 8
41 -6 73 -64 142 -28 33 -50 63 -50 67 0 4 22 31 49 60 83 90 141 222 141 321
0 40 -3 48 -25 58 -14 7 -55 12 -90 12 -64 0 -65 0 -65 28 0 15 -7 51 -14 81
-34 126 -115 183 -264 185 -75 1 -95 -3 -144 -26 -75 -35 -137 -99 -178 -181
-22 -46 -40 -69 -54 -72 -101 -20 -101 -20 -107 -50 -22 -103 5 -234 66 -325
19 -29 35 -53 35 -54 0 -11 -139 -110 -168 -120 l-37 -13 3 -57 c1 -33 11 -74
22 -96 26 -51 26 -68 0 -45 -61 55 -130 212 -130 296 0 45 4 54 33 80 17 16
52 47 76 69 l44 41 -6 67 c-4 46 -19 101 -47 170 -22 56 -46 126 -52 157 -14
73 -30 70 -88 -18 l-45 -67 -30 52 c-16 28 -42 65 -57 82 -34 39 -42 30 -59
-69 -7 -38 -15 -74 -20 -79 -4 -4 -19 10 -34 33 -14 23 -30 39 -35 36 -15 -10
-40 -142 -40 -217 0 -94 19 -172 58 -242 32 -55 32 -56 13 -75 -11 -11 -34
-27 -51 -36 -27 -14 -30 -19 -25 -53 48 -343 72 -461 120 -582 13 -34 45 -92
70 -129 27 -40 62 -113 88 -187 56 -152 60 -160 98 -173 60 -21 75 -18 237 48
l54 21 -7 -32 c-4 -18 -16 -59 -26 -90 -22 -71 -35 -138 -54 -298 -9 -69 -23
-152 -31 -185 -17 -65 -66 -165 -94 -190 -16 -14 -21 -13 -60 20 -104 87 -175
91 -243 15 -34 -36 -70 -129 -92 -229 -4 -18 -18 -58 -31 -87 -28 -63 -31
-104 -9 -104 8 0 43 20 77 45 39 29 65 42 72 35 10 -10 -8 -202 -26 -263 -9
-29 -9 -40 1 -50 13 -13 30 3 148 139 l51 59 25 -55 c78 -173 87 -192 99 -188
7 3 16 24 20 47 12 69 41 119 142 241 l95 115 53 0 53 0 107 250 c59 138 135
324 169 415 l61 165 141 4 c78 2 162 4 186 5 42 1 44 0 57 -38 14 -39 14 -39
-30 -90 -24 -28 -71 -80 -103 -116 l-60 -65 -94 19 -93 19 -57 -62 c-41 -44
-75 -98 -119 -187 -57 -116 -61 -127 -46 -142 14 -14 20 -15 49 -3 67 27 69
26 61 -5 -4 -16 -20 -58 -35 -93 -29 -65 -36 -114 -19 -141 10 -17 18 -11 112
79 32 30 60 53 62 50 3 -3 -3 -38 -13 -79 -22 -92 -18 -114 18 -105 47 11 105
56 211 166 l105 107 31 -15 31 -15 79 62 c44 34 90 76 104 92 29 36 63 71 108
111 18 16 32 35 32 43 0 7 25 46 55 85 30 39 60 88 66 109 11 37 10 42 -33
112 -54 87 -83 143 -92 180 -5 24 -2 28 30 38 20 7 39 8 43 4 4 -5 26 -34 49
-64 23 -30 74 -89 112 -130 67 -71 85 -109 60 -125 -18 -11 -75 -135 -110
-235 -37 -108 -89 -220 -102 -220 -5 0 -31 21 -59 47 -49 46 -50 46 -89 34
-71 -21 -234 -241 -258 -349 -12 -50 -3 -53 58 -22 51 26 110 27 110 2 0 -23
-36 -153 -60 -220 -17 -45 -18 -53 -5 -58 15 -6 29 3 81 57 19 20 55 45 82 57
26 11 72 32 103 45 l56 24 69 -95 c87 -119 99 -132 125 -132 16 0 19 4 14 17
-26 62 -7 221 31 264 8 9 21 39 29 67 18 58 35 65 72 30 32 -30 47 -19 102 73
123 207 190 423 206 670 9 127 -1 186 -34 217 -81 74 -102 98 -125 147 -14 30
-32 91 -41 137 -39 199 -45 225 -59 265 -18 50 -14 54 91 107 76 38 109 72
142 147 43 98 39 208 -9 281 -35 52 -127 123 -181 140 -22 6 -39 15 -39 20 0
5 12 25 26 44 32 41 41 107 24 167 -9 33 -33 66 -94 130 -93 97 -92 83 -5 149
20 15 51 50 69 79 32 48 34 56 34 143 0 73 -5 101 -23 143 -26 59 -91 124
-147 148 -55 23 -142 28 -187 11z"/>
<path d="M2054 5628 c3 -18 9 -52 12 -75 8 -50 23 -66 61 -61 21 2 32 12 45
38 9 19 22 41 28 48 22 24 4 41 -37 35 -32 -4 -45 0 -70 21 -40 34 -47 33 -39
-6z"/>
<path d="M1698 5553 c-43 -51 -32 -105 38 -183 30 -34 54 -71 54 -83 0 -12 7
-31 15 -41 10 -13 15 -44 15 -92 l0 -72 38 -19 c34 -17 37 -21 35 -57 -3 -48
41 -136 68 -136 10 0 37 23 59 51 31 40 40 59 40 90 0 36 2 39 28 39 50 0 98
70 87 126 -4 24 1 52 17 94 l23 59 36 -5 c46 -8 93 16 119 59 23 37 25 61 9
106 -9 25 -16 31 -39 31 -23 0 -40 -13 -82 -60 -35 -40 -60 -60 -75 -60 -21 0
-23 -4 -23 -53 0 -89 -51 -114 -109 -55 -38 38 -38 48 -6 78 31 29 33 66 4 75
-11 4 -42 4 -70 0 -56 -8 -61 -19 -28 -72 24 -39 20 -70 -14 -94 -40 -28 -74
-32 -97 -9 -27 27 -26 33 15 71 19 19 35 39 35 46 0 7 -17 17 -38 23 -44 11
-62 40 -62 98 0 21 -5 43 -12 50 -18 18 -63 15 -80 -5z"/>
</g>
</svg>
