<?xml version="1.0" standalone="no"?>
<!DOCTYPE svg PUBLIC "-//W3C//DTD SVG 20010904//EN"
 "http://www.w3.org/TR/2001/REC-SVG-20010904/DTD/svg10.dtd">
<svg version="1.0" xmlns="http://www.w3.org/2000/svg"
 width="500.000000pt" height="432.000000pt" viewBox="0 0 500.000000 432.000000"
 preserveAspectRatio="xMidYMid meet">
<metadata>
Created by potrace 1.16, written by Peter Selinger 2001-2019
</metadata>
<g transform="translate(0.000000,432.000000) scale(0.100000,-0.100000)"
fill="#000000" stroke="none">
<path d="M1665 4200 c-385 -22 -689 -163 -847 -393 -49 -72 -90 -159 -80 -169
5 -5 42 7 84 26 170 79 332 116 508 116 253 0 455 -104 578 -300 l41 -64 -50
-28 c-78 -42 -146 -98 -189 -153 -80 -104 -130 -258 -130 -402 0 -283 237
-540 560 -608 71 -15 261 -21 273 -9 4 4 -20 36 -53 71 -46 49 -63 76 -76 120
-40 137 25 262 173 335 35 17 85 33 111 36 90 8 243 -48 342 -126 25 -19 146
-137 270 -262 234 -236 302 -290 443 -355 133 -61 180 -70 397 -70 270 0 407
32 553 129 58 39 147 131 147 152 0 12 -38 16 -270 29 -582 33 -817 167 -1106
631 l-47 75 29 31 c76 80 238 165 393 205 325 84 681 4 996 -222 49 -35 93
-61 96 -57 14 14 -46 353 -97 552 -33 128 -105 354 -125 393 -14 25 -22 22
-56 -26 -133 -184 -348 -343 -557 -411 -233 -77 -693 -112 -869 -67 -157 41
-213 91 -386 344 -62 91 -139 190 -170 220 -159 151 -360 237 -601 257 -63 5
-126 9 -140 8 -14 -1 -79 -4 -145 -8z m414 -1616 c44 -56 12 -144 -53 -144
-56 0 -96 62 -76 116 14 38 37 54 76 54 23 0 39 -8 53 -26z"/>
<path d="M645 2473 c-148 -18 -304 -53 -307 -68 -2 -11 15 -17 122 -40 157
-33 373 -160 527 -308 142 -138 234 -284 268 -430 15 -65 20 -243 7 -264 -5
-9 -28 -7 -90 8 -347 81 -730 108 -949 68 -99 -18 -98 -31 1 -77 363 -171 613
-548 651 -984 4 -43 10 -80 15 -83 4 -3 23 21 40 52 127 225 360 397 604 448
136 28 227 15 353 -49 73 -37 117 -68 346 -242 195 -147 349 -228 525 -274
260 -69 555 -67 771 6 458 154 826 594 950 1134 27 117 35 186 22 194 -5 4
-42 -37 -81 -89 -346 -467 -804 -732 -1140 -661 -108 23 -290 117 -254 132 30
13 197 127 252 173 34 29 87 82 118 119 238 287 254 594 43 788 -144 132 -364
186 -664 163 -211 -16 -231 -28 -111 -71 95 -33 150 -65 200 -116 102 -106 69
-265 -76 -362 -157 -105 -421 -119 -598 -33 -65 32 -100 61 -270 228 -210 206
-289 270 -491 396 -321 199 -553 271 -784 242z m2500 -458 c52 -51 18 -145
-51 -145 -47 0 -69 13 -84 49 -36 89 69 163 135 96z"/>
<path d="M1121 364 c-42 -54 -16 -120 51 -130 30 -5 41 -2 62 19 54 54 20 137
-56 137 -28 0 -42 -7 -57 -26z"/>
</g>
</svg>
