<?xml version="1.0" standalone="no"?>
<!DOCTYPE svg PUBLIC "-//W3C//DTD SVG 20010904//EN"
 "http://www.w3.org/TR/2001/REC-SVG-20010904/DTD/svg10.dtd">
<svg version="1.0" xmlns="http://www.w3.org/2000/svg"
 width="5000.000000pt" height="3722.000000pt" viewBox="0 0 5000.000000 3722.000000"
 preserveAspectRatio="xMidYMid meet">
<metadata>
Created by potrace 1.16, written by Peter Selinger 2001-2019
</metadata>
<g transform="translate(0.000000,3722.000000) scale(0.100000,-0.100000)"
fill="#000000" stroke="none">
<path d="M24510 37214 c-25 -2 -124 -8 -220 -14 -311 -19 -647 -58 -1000 -116
-1278 -210 -2491 -656 -3610 -1327 -1677 -1006 -3068 -2505 -3940 -4247 -574
-1147 -925 -2375 -1045 -3660 -55 -594 -59 -1240 -9 -1845 203 -2494 1323
-4839 3154 -6600 1598 -1538 3654 -2523 5844 -2800 473 -60 799 -79 1321 -79
627 0 1120 39 1700 135 2821 466 5354 2116 6942 4522 903 1369 1459 2904 1643
4537 46 414 54 582 55 1145 0 568 -6 696 -51 1124 -220 2088 -1061 4029 -2441
5633 -1684 1957 -4019 3212 -6553 3522 -193 23 -276 32 -565 57 -114 10 -1130
21 -1225 13z m845 -474 c739 -29 1384 -121 2080 -296 1393 -349 2722 -1023
3835 -1943 338 -279 811 -732 1081 -1036 988 -1109 1694 -2364 2110 -3750 471
-1567 542 -3268 203 -4873 -223 -1063 -621 -2077 -1187 -3027 -569 -955 -1349
-1859 -2222 -2574 -1549 -1271 -3430 -2037 -5415 -2206 -446 -38 -1076 -44
-1485 -15 -1112 79 -2140 320 -3137 736 -992 413 -1887 971 -2725 1701 -215
187 -716 688 -908 908 -1124 1289 -1888 2806 -2239 4447 -309 1443 -287 2976
64 4413 510 2085 1670 3917 3358 5303 1599 1311 3593 2087 5662 2202 373 20
596 23 925 10z"/>
<path d="M25585 36320 c-265 -22 -444 -160 -520 -402 -35 -110 -46 -195 -46
-338 1 -370 181 -581 548 -640 111 -18 306 -14 394 9 222 57 357 198 420 436
29 112 37 360 15 465 -35 166 -136 306 -271 377 -81 43 -217 81 -312 88 -43 3
-91 7 -108 9 -16 2 -70 0 -120 -4z m233 -263 c154 -40 211 -160 199 -415 -12
-240 -61 -368 -165 -429 -43 -25 -56 -28 -142 -28 -84 0 -102 4 -153 28 -109
54 -147 143 -147 340 0 351 95 515 300 517 31 0 79 -6 108 -13z"/>
<path d="M23835 36279 c-154 -12 -303 -60 -416 -135 -189 -126 -279 -322 -266
-579 18 -352 187 -585 477 -662 47 -12 104 -17 205 -17 167 0 288 23 421 79
69 29 231 90 240 90 1 0 5 39 9 88 6 72 5 87 -7 87 -35 0 -49 26 -63 115 -19
114 -14 142 31 161 18 8 45 14 60 14 16 0 24 4 21 13 -3 6 -17 47 -32 90 -15
42 -32 77 -38 77 -7 1 -125 -14 -263 -32 l-252 -32 -6 -60 c-3 -32 -6 -74 -6
-92 l0 -34 50 0 c63 0 86 -21 95 -87 4 -26 10 -72 14 -100 7 -47 6 -54 -14
-67 -83 -55 -252 -68 -342 -27 -134 60 -207 226 -207 471 0 106 3 133 22 180
25 64 85 131 143 161 46 23 155 49 210 49 91 0 198 -59 236 -133 15 -29 15
-29 76 -22 34 3 63 8 64 9 4 4 33 260 33 292 0 30 -2 31 -87 57 -149 46 -251
57 -408 46z"/>
<path d="M26850 35999 c-35 -88 -61 -161 -59 -163 6 -5 128 -66 133 -66 2 0
13 16 25 35 40 68 88 74 247 30 l60 -17 -108 -396 c-59 -217 -113 -410 -119
-429 -13 -40 -40 -56 -84 -51 -31 4 -33 2 -39 -32 -3 -19 -6 -62 -6 -95 l0
-60 233 -63 c127 -34 238 -62 244 -62 11 0 93 147 93 165 0 3 -6 5 -14 5 -24
0 -66 41 -66 65 0 27 219 836 229 847 3 3 48 -6 100 -22 114 -34 151 -65 158
-133 6 -52 15 -57 100 -57 46 0 53 3 58 23 14 64 47 308 42 313 -4 4 -889 249
-1113 308 l-52 13 -62 -158z"/>
<path d="M21796 35628 c-3 -18 -15 -107 -26 -197 l-21 -163 -130 -154 c-81
-96 -125 -156 -117 -158 7 -3 97 -15 200 -27 l187 -23 152 -128 c84 -70 155
-128 159 -128 3 0 17 89 30 198 l23 197 130 153 c71 84 128 155 126 157 -2 2
-76 13 -164 24 -88 12 -176 24 -196 27 -28 4 -72 35 -185 130 -82 68 -152 124
-155 124 -4 0 -9 -15 -13 -32z"/>
<path d="M28617 35549 c-31 -37 -57 -72 -57 -77 0 -5 11 -14 24 -21 32 -18 45
-49 34 -82 -21 -61 -381 -756 -404 -779 -22 -23 -26 -23 -60 -11 -20 7 -40 9
-44 5 -5 -5 -16 -38 -25 -74 -9 -36 -18 -72 -21 -81 -4 -13 44 -42 222 -134
124 -64 227 -115 229 -113 2 2 28 34 59 73 l55 69 -34 32 c-19 17 -35 39 -35
47 0 25 149 317 162 317 17 0 428 -213 428 -222 0 -19 -140 -285 -158 -302
-21 -18 -54 -19 -93 -2 -13 6 -20 -8 -38 -78 -11 -47 -21 -90 -21 -96 0 -9
431 -231 447 -230 8 1 90 99 107 127 6 11 -1 23 -23 43 -17 16 -31 39 -31 51
0 27 373 764 404 797 21 23 51 26 96 8 12 -5 20 13 39 85 12 50 21 92 19 94
-15 13 -440 226 -447 223 -5 -1 -34 -34 -65 -72 l-57 -69 31 -20 c52 -33 50
-56 -21 -198 -35 -71 -65 -129 -66 -129 -1 0 -101 51 -222 113 l-219 113 64
124 c71 140 88 157 140 140 20 -7 37 -10 40 -7 3 2 15 43 28 91 l24 87 -227
113 -226 114 -58 -69z"/>
<path d="M20400 35094 c-98 -21 -204 -60 -313 -117 -317 -165 -449 -427 -331
-659 101 -199 305 -257 574 -163 189 66 224 76 272 77 54 2 90 -18 118 -65 53
-87 -10 -195 -154 -263 -119 -56 -232 -54 -316 6 -26 18 -27 18 -78 -12 -29
-16 -52 -36 -52 -44 0 -9 19 -76 42 -151 l43 -135 60 6 c264 27 550 175 684
353 76 101 95 157 96 278 0 92 -3 105 -32 168 -40 85 -119 169 -192 204 -52
26 -65 28 -171 28 -114 -1 -116 -1 -297 -63 -216 -74 -250 -77 -299 -28 -76
76 -29 183 110 252 102 50 181 57 258 21 l55 -25 49 30 c27 17 51 32 53 34 3
3 -3 28 -12 57 -8 28 -28 91 -42 140 -30 97 -24 93 -125 71z"/>
<path d="M24679 34529 c-721 -27 -1469 -166 -2164 -403 -2026 -690 -3714
-2252 -4555 -4217 -334 -780 -526 -1561 -600 -2449 -30 -351 -23 -957 16
-1345 159 -1607 822 -3118 1902 -4335 129 -145 430 -448 587 -590 1212 -1097
2734 -1776 4345 -1939 767 -78 1559 -42 2300 105 1246 248 2427 813 3400 1628
342 287 727 674 1006 1011 893 1079 1469 2379 1669 3760 57 397 77 689 77
1120 0 533 -42 981 -138 1467 -396 2012 -1570 3769 -3285 4916 -774 517 -1665
897 -2574 1097 -466 102 -878 155 -1375 175 -265 11 -315 11 -611 -1z m601
-593 c569 -14 1210 -123 1805 -306 1392 -429 2625 -1290 3530 -2465 149 -193
396 -563 519 -778 521 -909 822 -1878 918 -2957 17 -195 17 -927 0 -1115 -69
-743 -206 -1348 -452 -1990 -551 -1438 -1607 -2696 -2945 -3507 -1837 -1113
-4092 -1323 -6118 -572 -431 160 -923 405 -1318 656 -716 457 -1368 1061
-1879 1743 -560 748 -969 1606 -1195 2506 -227 902 -273 1819 -139 2749 194
1348 785 2623 1688 3645 231 261 608 621 881 841 224 181 551 410 795 556
1020 613 2200 961 3380 997 124 4 248 6 275 4 28 -1 142 -5 255 -7z"/>
<path d="M24956 33429 c-161 -21 -269 -112 -327 -275 -16 -44 -23 -96 -28
-206 -6 -144 -7 -147 -37 -185 -73 -91 -223 -153 -437 -182 -116 -16 -379 -14
-483 4 -104 18 -214 68 -314 144 -95 72 -238 224 -303 322 -34 52 -73 97 -98
115 -37 25 -51 29 -114 29 -61 0 -77 -4 -113 -28 -50 -33 -91 -91 -99 -141
-11 -69 73 -268 180 -429 143 -214 366 -383 627 -475 218 -76 410 -102 760
-102 171 0 267 -4 284 -11 20 -10 27 -25 41 -88 25 -115 78 -271 177 -529 49
-128 96 -262 105 -296 15 -63 15 -63 -11 -102 -53 -81 -69 -223 -37 -334 19
-64 74 -144 122 -176 l46 -31 -29 -39 c-152 -201 -250 -630 -280 -1220 -29
-577 49 -1116 223 -1539 179 -436 448 -660 740 -617 341 49 499 397 539 1187
29 572 35 635 66 696 28 56 148 85 314 75 62 -4 109 -11 117 -19 22 -22 -46
-613 -189 -1627 -57 -409 -71 -531 -72 -640 -1 -169 10 -213 109 -420 169
-357 256 -764 257 -1205 0 -203 -10 -338 -38 -500 -33 -186 -106 -449 -133
-478 -9 -9 -68 -31 -129 -47 -372 -100 -639 -287 -668 -468 -8 -52 17 -105 60
-126 90 -43 357 -46 557 -7 217 43 410 128 523 233 78 71 98 103 161 258 25
63 98 213 162 333 204 385 279 590 338 922 26 143 31 407 11 544 -42 285 -166
523 -348 666 -111 88 -170 149 -194 200 -41 87 -28 187 41 325 92 183 175 440
224 695 39 199 58 349 81 655 11 140 22 269 25 286 9 54 68 119 138 154 112
55 234 39 300 -39 46 -55 118 -285 154 -491 13 -70 17 -155 17 -325 0 -238 -5
-289 -59 -616 -44 -260 -33 -408 46 -614 38 -100 70 -235 103 -435 89 -539 84
-1080 -15 -1750 -35 -239 -121 -704 -133 -724 -7 -11 -60 -36 -133 -61 -249
-88 -358 -144 -459 -238 -140 -129 -140 -246 -2 -308 49 -22 66 -24 218 -24
125 0 184 4 245 19 288 66 510 180 562 287 12 24 36 87 55 139 18 52 128 286
243 520 265 535 338 706 419 972 155 514 118 917 -115 1247 -63 90 -263 297
-353 366 -36 28 -70 62 -77 78 -24 57 -5 159 75 407 145 446 195 652 203 840
8 190 -7 280 -117 670 -47 166 -63 320 -38 354 14 18 18 18 123 -9 141 -35
285 -85 403 -141 100 -46 144 -54 178 -29 31 21 65 108 71 185 5 61 3 72 -23
120 -38 70 -120 142 -246 217 -100 60 -271 141 -373 178 -86 31 -86 12 -5 307
182 661 204 748 244 991 41 241 58 426 46 481 -22 98 -85 182 -164 216 -98 43
-434 102 -684 120 -79 6 -152 15 -162 20 -35 19 -104 257 -130 447 -12 89 -12
93 13 155 72 181 59 340 -39 448 -105 116 -269 175 -524 187 -484 23 -746
-216 -596 -543 63 -138 259 -272 448 -307 l58 -11 20 -63 c11 -35 31 -118 44
-186 38 -188 38 -185 18 -195 -9 -5 -100 -12 -202 -15 -250 -9 -592 -37 -1235
-102 -297 -30 -563 -55 -592 -56 -84 -3 -95 9 -147 168 -201 621 -173 1045 77
1153 40 18 82 25 186 31 201 13 321 51 419 134 125 108 132 268 15 376 -48 45
-102 77 -156 93 -187 54 -568 81 -771 55z m3138 -2433 c145 -32 161 -57 159
-246 -2 -293 -90 -743 -168 -862 -55 -83 -197 -130 -395 -131 -191 0 -327 41
-385 118 -109 142 -162 711 -89 955 18 61 64 98 157 129 60 20 191 46 272 55
83 9 381 -3 449 -18z m-1682 -101 c23 -17 53 -45 64 -63 53 -77 186 -768 186
-964 1 -97 -33 -177 -85 -201 -110 -52 -409 -48 -540 6 -46 20 -63 54 -116
232 -59 199 -117 313 -202 397 -70 69 -176 130 -251 143 -21 4 -38 9 -38 12 0
3 10 13 23 23 35 28 74 108 88 180 15 83 28 108 80 154 76 70 103 76 434 110
22 2 101 3 177 2 135 -1 137 -1 180 -31z m-1050 -1163 c67 -74 120 -262 157
-552 67 -522 43 -1231 -48 -1408 -31 -60 -45 -68 -86 -49 -95 45 -176 263
-230 616 -36 237 -48 402 -48 671 0 328 26 522 88 657 49 108 108 130 167 65z"/>
<path d="M21745 30863 c-491 -39 -897 -148 -1265 -339 -588 -306 -967 -783
-1113 -1399 -77 -326 -87 -747 -26 -1108 72 -424 264 -849 536 -1187 330 -411
820 -721 1348 -853 248 -62 336 -72 655 -72 311 0 401 9 628 65 873 214 1497
882 1747 1869 110 436 124 935 36 1278 -80 310 -273 670 -503 938 -374 436
-834 702 -1348 779 -206 31 -510 44 -695 29z m258 -398 c96 -17 163 -48 182
-86 8 -15 22 -54 30 -85 29 -110 -12 -181 -120 -208 -93 -24 -302 -46 -510
-53 -163 -5 -198 -4 -241 11 -101 33 -174 127 -174 222 0 43 4 51 45 90 52 50
149 85 300 108 119 19 388 19 488 1z m1084 -345 c89 -41 146 -82 242 -174 132
-128 210 -250 211 -328 0 -73 -90 -137 -217 -153 -42 -6 -56 -3 -115 28 -139
72 -400 294 -442 375 -38 74 -17 172 50 231 77 68 157 74 271 21z m-2494 -86
c82 -55 153 -212 127 -280 -22 -56 -124 -180 -269 -325 -160 -160 -203 -187
-282 -176 -90 12 -166 105 -177 217 -9 98 87 250 264 419 75 72 124 110 176
135 84 43 111 44 161 10z m1473 -373 c116 -28 196 -57 299 -109 212 -105 334
-233 311 -327 -9 -35 -77 -108 -151 -160 -154 -110 -423 -214 -510 -197 -40 7
-164 129 -254 249 -126 167 -221 350 -221 422 0 31 43 77 101 107 91 47 266
53 425 15z m-886 -338 c140 -160 280 -453 283 -594 1 -47 -3 -64 -25 -94 -82
-115 -446 -289 -670 -320 -40 -5 -49 -3 -68 17 -101 105 -96 410 11 662 80
189 193 313 335 371 68 27 74 25 134 -42z m2662 -339 c63 -32 115 -218 125
-451 9 -206 -16 -333 -74 -385 -77 -70 -260 -60 -321 16 -38 49 -62 246 -62
501 1 176 9 227 41 261 65 70 209 99 291 58z m-3736 -215 c40 -24 51 -51 70
-166 33 -206 35 -504 5 -562 -24 -44 -131 -106 -210 -121 -114 -21 -180 31
-229 180 -33 101 -45 202 -39 340 8 197 38 265 140 315 98 47 200 53 263 14z
m2879 -29 c36 -34 84 -124 101 -190 22 -88 15 -274 -16 -380 -76 -264 -258
-489 -398 -490 -51 0 -93 23 -166 91 -126 117 -263 319 -312 457 -34 95 -32
142 7 187 89 101 470 300 654 341 68 15 101 11 130 -16z m-1275 -578 c139 -74
346 -550 309 -711 -10 -43 -27 -57 -99 -79 -87 -26 -233 -22 -354 11 -192 53
-402 172 -514 292 -92 98 -93 123 -9 205 73 72 210 163 330 220 165 79 269 98
337 62z m1794 -626 c37 -18 68 -43 88 -70 26 -36 29 -47 24 -85 -12 -85 -106
-231 -240 -370 -127 -130 -241 -211 -301 -211 -130 0 -254 199 -201 323 36 85
240 320 349 402 l62 47 81 -4 c63 -3 94 -11 138 -32z m-3003 -47 c79 -50 319
-291 377 -378 34 -51 42 -72 42 -108 0 -68 -19 -119 -63 -169 -82 -93 -154
-106 -269 -46 -168 87 -384 288 -453 422 -52 100 19 231 159 296 79 37 130 32
207 -17z m1722 -629 c86 -25 164 -138 174 -251 9 -97 -28 -129 -186 -156 -106
-19 -402 -12 -531 11 -199 36 -270 77 -270 154 1 75 59 166 130 202 93 47 561
74 683 40z"/>
<path d="M19560 26322 c-255 -69 -386 -340 -275 -569 76 -155 269 -197 479
-104 27 11 51 19 53 17 3 -2 -5 -62 -17 -133 -25 -146 -68 -300 -135 -488
-103 -287 -157 -456 -183 -575 -24 -116 -26 -143 -27 -360 0 -202 4 -252 23
-355 101 -536 285 -925 634 -1340 111 -132 373 -384 528 -508 159 -127 451
-324 639 -432 834 -476 1885 -786 3016 -890 539 -49 1211 -49 1785 0 364 32
903 109 1120 160 472 113 1100 397 1606 727 677 441 1228 999 1583 1602 176
299 400 832 510 1211 238 821 160 1349 -216 1465 -96 29 -207 36 -275 16 -160
-46 -264 -255 -230 -459 21 -124 83 -223 200 -319 l32 -26 0 -102 c0 -363
-252 -963 -598 -1426 -386 -515 -838 -804 -1262 -808 -75 -1 -90 2 -130 25
-25 15 -85 70 -134 123 -106 116 -146 140 -236 139 -72 0 -166 -30 -195 -63
-33 -37 -30 -111 9 -249 20 -69 36 -134 36 -145 0 -53 -84 -131 -152 -142 -43
-7 -104 22 -143 68 -16 18 -57 93 -92 167 -127 268 -216 363 -366 392 -114 22
-211 -13 -235 -85 -19 -59 0 -137 78 -326 99 -239 108 -286 70 -359 -54 -106
-148 -163 -233 -140 -99 26 -173 151 -237 399 -22 85 -45 166 -51 180 -7 14
-15 68 -20 121 -9 114 -34 174 -90 223 -91 77 -270 87 -371 20 -87 -56 -109
-192 -51 -315 16 -35 46 -83 66 -107 20 -24 42 -62 47 -85 6 -23 39 -103 72
-177 74 -162 85 -226 47 -267 -59 -64 -166 -81 -255 -39 -90 42 -98 59 -240
516 -54 175 -57 191 -59 295 -2 185 -51 284 -167 336 -79 35 -212 34 -288 -2
-105 -50 -164 -133 -163 -230 1 -68 25 -125 83 -197 61 -76 183 -337 215 -460
32 -125 12 -229 -54 -285 -39 -33 -70 -41 -118 -34 -96 16 -147 130 -294 652
-53 189 -63 236 -69 335 -7 137 -29 204 -84 267 -59 67 -105 87 -201 87 -112
0 -168 -30 -210 -113 -28 -55 -17 -189 27 -326 32 -101 121 -522 134 -640 16
-136 -76 -250 -201 -249 -53 1 -117 28 -147 61 -59 65 -135 373 -172 694 -13
120 -13 131 5 195 78 274 65 414 -41 473 -52 29 -162 39 -229 21 -57 -15 -132
-86 -162 -153 -21 -45 -24 -67 -23 -167 0 -81 5 -128 17 -157 14 -37 15 -56 5
-133 -7 -67 -7 -124 2 -218 29 -311 26 -370 -27 -433 -85 -100 -277 -105 -386
-9 -68 60 -81 103 -74 248 3 64 13 189 22 277 17 165 16 317 -5 427 -10 52 -9
61 13 105 39 78 52 141 52 248 0 89 -3 106 -28 158 -41 82 -94 112 -197 111
-177 0 -297 -123 -308 -314 -5 -86 7 -142 44 -195 l25 -38 -65 -326 c-65 -324
-108 -487 -145 -547 -12 -19 -41 -43 -75 -59 -48 -24 -65 -27 -126 -23 -74 4
-105 19 -144 72 -34 45 -29 210 13 401 18 83 41 199 50 258 10 59 25 115 34
125 46 52 97 196 97 276 0 54 -29 134 -62 172 -68 77 -195 106 -282 65 -92
-45 -132 -147 -123 -315 5 -94 2 -112 -34 -259 -67 -268 -112 -370 -191 -427
-120 -87 -226 -39 -273 125 -38 130 -2 305 148 727 l94 262 37 13 c46 15 104
57 140 100 81 96 111 266 66 372 -28 64 -102 133 -167 155 -58 20 -145 21
-182 1 -73 -37 -136 -151 -148 -267 -5 -53 -10 -62 -37 -79 -56 -35 -102 -42
-142 -23 -118 56 -187 268 -150 454 52 256 227 417 518 479 114 23 144 37 187
86 62 71 30 158 -70 185 -55 16 -249 7 -337 -15 -315 -77 -548 -284 -647 -576
-113 -331 -46 -745 171 -1057 24 -35 44 -65 44 -69 0 -3 -20 -46 -43 -97 -24
-50 -52 -115 -61 -143 -16 -49 -20 -53 -49 -53 -79 1 -232 93 -326 196 -195
213 -301 514 -301 856 0 224 35 412 135 727 107 339 138 595 100 841 -43 286
-183 482 -398 558 -96 34 -278 41 -377 14z"/>
<path d="M30410 34371 c-96 -30 -181 -83 -268 -165 -135 -128 -214 -243 -267
-386 -24 -64 -28 -91 -29 -180 -1 -118 13 -172 71 -280 49 -90 231 -268 340
-334 139 -82 198 -100 338 -100 100 -1 130 3 179 21 99 38 166 83 266 183 282
280 350 575 192 835 -106 174 -353 363 -537 410 -80 20 -216 19 -285 -4z m381
-327 c63 -35 132 -102 160 -156 28 -54 30 -126 5 -193 -52 -139 -259 -380
-370 -431 -109 -50 -212 -25 -317 77 -119 116 -118 229 5 412 143 214 305 336
425 322 24 -3 65 -17 92 -31z"/>
<path d="M18590 33829 c-118 -110 -235 -220 -259 -244 l-44 -43 47 -81 48 -81
38 23 c35 20 41 20 54 7 23 -23 376 -864 376 -895 0 -16 -11 -43 -25 -61 l-25
-32 65 -46 c35 -26 71 -49 80 -52 10 -4 52 28 131 102 64 60 134 125 157 145
l41 36 -42 69 c-23 38 -45 75 -50 82 -7 10 -16 9 -45 -8 l-36 -21 -17 20 c-10
11 -28 45 -41 77 l-25 57 24 22 c13 12 91 85 173 161 l150 140 58 -31 c32 -17
65 -39 74 -48 16 -16 15 -19 -5 -46 l-22 -30 33 -24 c124 -91 119 -89 141 -69
62 54 341 317 344 323 3 7 -86 159 -94 159 -2 0 -18 -9 -36 -20 -18 -11 -42
-20 -54 -20 -22 0 -833 406 -865 433 -25 22 -24 30 5 65 l25 29 -74 51 c-41
29 -78 52 -82 52 -5 0 -105 -91 -223 -201z m358 -390 c75 -39 152 -80 169 -91
l33 -19 -83 -78 c-45 -43 -98 -92 -118 -110 l-37 -31 -62 147 c-58 139 -106
236 -160 327 l-23 38 72 -55 c40 -31 134 -89 209 -128z"/>
<path d="M31925 33208 c-44 -22 -82 -42 -84 -44 -2 -2 3 -12 11 -21 21 -24 30
-56 22 -77 -8 -20 -652 -542 -696 -563 -30 -16 -29 -16 -94 32 -9 7 -17 5 -26
-7 -7 -9 -33 -41 -56 -72 -28 -35 -41 -60 -36 -68 32 -53 468 -579 517 -623
35 -32 98 -74 145 -98 76 -38 90 -41 165 -41 73 -1 90 3 148 31 160 79 239
239 200 405 -9 37 -9 38 18 30 14 -4 69 -7 121 -7 72 0 103 5 128 18 52 28
112 94 139 154 23 49 25 65 21 141 -8 152 -49 223 -348 595 -113 141 -207 256
-210 256 -3 0 -41 -18 -85 -41z m250 -520 c72 -91 99 -149 91 -196 -7 -44 -48
-89 -103 -114 -47 -21 -78 -17 -130 14 -34 20 -145 152 -147 174 -1 12 209
193 225 194 3 0 32 -33 64 -72z m-318 -494 c23 -73 12 -114 -45 -174 -79 -81
-164 -89 -243 -23 -42 36 -161 183 -156 196 1 5 65 60 142 122 l139 113 73
-92 c47 -59 79 -109 90 -142z"/>
<path d="M17370 32465 c-195 -267 -355 -488 -355 -493 0 -9 230 -224 246 -230
5 -2 33 20 64 49 l55 52 -25 29 c-34 41 -40 72 -22 119 17 42 106 169 119 169
4 0 165 -116 358 -257 259 -190 352 -263 357 -282 4 -15 0 -36 -11 -55 -16
-27 -16 -31 -2 -41 32 -24 157 -68 165 -59 5 5 72 96 150 202 l142 193 -40 47
c-21 26 -50 57 -64 70 l-25 23 -25 -25 c-51 -50 -16 -71 -594 354 -101 73
-183 138 -183 143 0 17 101 147 132 168 29 21 71 22 133 4 17 -4 24 5 48 57
15 35 27 68 27 73 0 6 -35 29 -78 52 -42 24 -109 60 -147 82 l-70 40 -355
-484z"/>
<path d="M33012 31737 c-59 -16 -72 -23 -66 -36 16 -38 16 -72 -1 -91 -10 -11
-156 -90 -324 -176 -168 -86 -326 -171 -350 -190 -62 -47 -118 -126 -139 -193
-23 -77 -23 -243 2 -331 26 -93 106 -254 164 -331 66 -87 131 -142 220 -186
62 -31 86 -37 156 -41 59 -3 99 0 142 13 32 9 199 89 370 176 171 87 320 159
332 159 11 0 33 -16 50 -35 l29 -36 71 58 c39 32 70 63 69 68 -1 6 -48 101
-105 213 -70 138 -107 202 -118 202 -9 0 -52 -10 -96 -22 -64 -17 -78 -24 -72
-37 19 -44 16 -78 -10 -98 -14 -11 -164 -91 -335 -177 -337 -170 -354 -175
-430 -136 -71 36 -145 150 -158 245 -7 53 15 120 52 155 31 29 620 329 661
336 32 6 54 -8 79 -50 9 -14 19 -9 80 40 39 30 71 60 73 64 2 5 -49 111 -113
235 -131 254 -111 236 -233 202z"/>
<path d="M16580 31185 l-115 -226 40 -36 c22 -19 55 -47 74 -61 31 -24 34 -25
43 -8 23 40 49 58 76 51 49 -12 768 -385 792 -410 21 -23 22 -28 12 -62 -6
-21 -8 -40 -4 -44 16 -13 165 -50 173 -42 9 9 229 437 229 445 0 3 -32 31 -70
62 l-70 57 -35 -37 c-28 -29 -39 -35 -60 -30 -29 7 -737 370 -779 399 -28 20
-31 42 -15 106 3 9 -16 19 -58 31 -130 38 -103 61 -233 -195z"/>
<path d="M16196 30189 c-83 -91 -171 -253 -222 -409 -25 -76 -28 -99 -28 -225
0 -124 2 -147 23 -198 63 -160 251 -265 422 -238 145 24 248 117 370 336 94
170 162 229 239 206 108 -32 136 -170 64 -313 -56 -110 -113 -160 -216 -188
l-62 -17 -19 -57 c-10 -31 -17 -59 -16 -60 2 -2 60 -38 128 -81 95 -59 129
-75 140 -68 30 19 126 141 173 220 56 95 102 206 130 316 27 107 22 283 -10
367 -67 170 -225 268 -420 258 -62 -3 -99 -10 -127 -25 -104 -54 -186 -149
-293 -339 -105 -186 -157 -224 -240 -174 -134 82 -31 375 152 436 58 20 59 20
77 79 10 33 17 60 16 60 -3 2 -200 126 -223 142 -20 12 -24 10 -58 -28z"/>
<path d="M33804 29860 c9 -46 -8 -75 -51 -92 -89 -35 -822 -220 -846 -214 -15
3 -31 19 -41 41 -9 19 -21 35 -26 35 -11 0 -160 -80 -160 -87 0 -17 124 -470
130 -477 5 -4 49 -5 98 -1 l90 7 -5 38 c-8 56 16 71 174 113 76 20 139 35 141
32 2 -2 15 -47 29 -100 42 -164 24 -195 -176 -299 -134 -70 -204 -122 -232
-172 -15 -28 -13 -38 35 -221 l51 -193 75 0 c116 0 118 2 106 61 -14 71 1 93
104 152 47 27 100 60 119 74 42 32 89 105 103 161 l11 44 51 -50 c83 -81 123
-97 241 -97 87 0 107 3 155 26 165 77 233 223 209 449 -8 69 -113 495 -185
748 l-15 52 -96 0 -95 0 6 -30z m118 -555 c42 -157 36 -226 -24 -282 -58 -54
-164 -69 -224 -32 -48 29 -82 94 -115 216 -16 59 -27 108 -25 110 8 8 332 92
346 90 10 -2 24 -35 42 -102z"/>
<path d="M16840 28515 c0 -14 -7 -41 -15 -61 -18 -43 -51 -58 -160 -72 -139
-19 -219 -58 -271 -133 l-27 -39 -22 55 c-63 155 -176 221 -359 213 -77 -3
-99 -8 -145 -33 -94 -52 -162 -148 -201 -285 -17 -60 -88 -622 -102 -809 l-3
-34 85 -28 c46 -16 88 -29 92 -29 4 0 8 11 8 24 0 43 31 69 82 68 44 -1 730
-75 812 -88 50 -8 76 -35 76 -79 0 -30 3 -35 23 -35 32 1 158 18 162 22 6 5
55 430 55 471 0 33 -1 33 -77 56 -43 13 -83 25 -89 28 -6 2 -15 -13 -20 -34
-14 -60 -34 -64 -204 -45 l-145 17 11 95 c14 114 23 139 64 173 39 34 77 43
219 57 129 13 222 39 264 73 28 22 29 28 48 192 10 94 20 184 23 201 4 30 4
31 -78 57 -101 33 -106 33 -106 2z m-791 -406 c92 -21 140 -86 141 -189 0 -52
-18 -221 -24 -227 -4 -5 -359 37 -364 42 -10 10 21 233 38 270 22 50 65 91
110 103 46 13 47 13 99 1z"/>
<path d="M33655 27969 c-230 -28 -407 -144 -495 -324 -58 -118 -72 -179 -77
-346 -6 -178 4 -248 62 -429 25 -77 45 -151 45 -165 0 -27 0 -27 110 -46 46
-7 65 -8 68 0 2 6 11 20 21 32 14 17 31 22 103 26 47 3 98 3 113 -1 29 -7 55
-56 55 -102 0 -23 3 -25 23 -20 12 4 53 14 91 24 l69 17 -7 165 c-3 91 -9 210
-12 266 l-7 100 -81 12 c-112 16 -106 18 -106 -32 0 -28 -7 -52 -19 -67 -17
-21 -28 -24 -125 -27 l-106 -4 -16 37 c-28 69 -37 148 -24 224 28 166 139 247
372 271 179 18 325 -17 405 -96 138 -138 131 -423 -12 -512 -24 -15 -50 -31
-59 -37 -14 -8 -15 -21 -10 -71 l6 -60 155 -31 155 -30 29 61 c15 33 40 102
56 151 25 84 27 102 27 275 1 163 -2 194 -22 263 -103 357 -381 525 -787 476z"/>
<path d="M16536 26648 c-3 -18 -7 -54 -10 -80 l-5 -46 39 -7 c52 -9 87 -38 99
-83 12 -43 45 -381 38 -388 -6 -6 -328 -36 -333 -31 -2 2 -9 63 -16 135 -10
118 -10 133 6 156 9 14 25 26 35 26 30 0 30 8 4 86 -25 74 -25 75 -56 70 -18
-3 -90 -11 -162 -17 -71 -6 -132 -13 -134 -15 -6 -5 -20 -93 -20 -126 -1 -23
3 -28 22 -28 50 0 64 -39 82 -237 l6 -72 -33 -5 c-66 -11 -271 -27 -276 -22
-2 3 -11 71 -19 152 -16 173 -9 214 40 244 18 11 40 20 51 20 11 0 16 5 13 13
-3 7 -13 41 -22 75 -15 51 -21 62 -39 62 -44 -1 -298 -29 -303 -34 -5 -5 71
-892 82 -962 5 -31 7 -32 81 -43 115 -17 114 -17 114 29 0 30 5 43 23 55 16
10 142 25 452 54 480 44 473 44 489 -22 5 -20 14 -37 20 -37 5 0 47 12 92 27
l82 26 -5 36 c-2 20 -23 253 -47 519 -24 266 -46 485 -48 486 -1 2 -78 6 -170
10 l-167 6 -5 -32z"/>
<path d="M33148 26143 c-50 -3 -59 -7 -63 -26 -12 -54 -154 -1011 -151 -1014
11 -11 321 -92 327 -85 8 9 49 119 49 132 0 5 -18 19 -40 30 -26 13 -47 34
-58 56 -16 34 -15 44 12 232 16 108 29 198 30 199 2 3 330 -49 335 -53 4 -4
-16 -148 -31 -218 -12 -56 -37 -86 -74 -86 l-26 0 7 -77 c4 -43 8 -79 9 -79 0
-1 74 -12 163 -26 l162 -24 30 70 30 71 -26 11 c-33 14 -43 31 -43 77 0 38 28
238 34 244 2 2 72 -6 155 -19 104 -16 151 -27 151 -35 0 -27 -41 -269 -51
-299 -14 -44 -48 -72 -97 -80 l-43 -7 7 -71 c4 -39 8 -72 9 -74 3 -4 319 -52
321 -49 1 1 34 216 73 477 40 261 75 484 77 495 4 17 -7 25 -82 52 -89 34
-104 34 -104 5 0 -34 -29 -62 -66 -62 -31 0 -787 112 -841 125 -35 8 -53 33
-53 76 0 44 13 41 -132 32z"/>
<path d="M15815 24919 c-38 -21 -74 -40 -79 -42 -5 -2 19 -101 54 -220 l63
-217 46 0 c25 0 69 3 96 6 l50 6 -3 39 c-6 64 0 64 350 29 217 -21 334 -28
400 -24 l93 5 -80 -43 c-44 -23 -192 -127 -329 -230 -155 -117 -258 -188 -273
-188 -15 0 -28 10 -38 30 l-15 30 -58 -32 c-31 -18 -69 -39 -83 -48 l-27 -15
71 -240 c39 -132 72 -242 73 -243 1 -2 45 -1 97 3 l94 7 -4 43 c-3 23 0 51 6
63 6 11 221 183 479 382 257 199 471 367 476 375 7 9 -7 70 -40 184 -48 169
-49 171 -79 176 -16 2 -288 27 -604 55 -385 35 -584 56 -602 66 -16 8 -32 28
-39 49 -6 19 -15 35 -18 34 -4 0 -38 -18 -77 -40z"/>
<path d="M32769 24501 c-28 -75 -63 -167 -77 -205 l-25 -68 24 -19 c13 -9 48
-32 78 -50 52 -32 55 -32 65 -15 20 34 46 56 67 56 11 0 129 -41 262 -91 133
-50 267 -99 297 -108 l55 -17 -50 -8 c-27 -4 -264 -68 -527 -143 l-476 -135
-46 -122 c-25 -67 -46 -126 -46 -132 0 -5 233 -97 517 -204 285 -107 526 -203
536 -213 15 -15 18 -28 13 -61 l-7 -43 91 -13 c50 -7 92 -11 94 -9 3 4 52 133
130 341 l25 67 -80 51 c-44 29 -81 50 -82 48 -22 -43 -40 -65 -59 -71 -18 -7
-77 11 -263 81 -132 49 -256 93 -275 98 -33 7 -31 8 40 21 75 14 862 236 889
251 9 5 150 348 151 368 0 5 -161 106 -163 103 -1 -2 -9 -17 -17 -33 -30 -59
-25 -60 -461 103 -222 84 -415 159 -428 167 -21 14 -23 22 -19 65 3 27 2 49
-1 49 -3 0 -45 6 -93 14 l-87 13 -52 -136z"/>
<path d="M17520 23488 c-41 -11 -76 -21 -78 -23 -2 -2 1 -19 8 -39 8 -26 8
-40 0 -56 -14 -25 -779 -410 -816 -410 -23 0 -35 10 -66 52 -12 16 -19 13 -85
-38 -40 -31 -73 -60 -73 -65 0 -5 50 -108 110 -229 80 -161 115 -220 128 -220
19 0 152 37 159 44 2 2 0 20 -5 39 -8 27 -7 40 5 57 16 23 782 410 812 410 18
0 41 -20 65 -54 12 -18 17 -16 89 39 l75 58 -112 228 c-72 148 -116 228 -126
228 -8 -1 -49 -10 -90 -21z"/>
<path d="M32169 22911 c-147 -98 -299 -275 -374 -433 -52 -110 -68 -185 -63
-298 3 -84 8 -105 36 -162 75 -153 263 -255 423 -229 111 18 216 90 377 255
148 153 210 176 278 105 76 -79 0 -262 -144 -347 -31 -17 -66 -27 -110 -31
l-66 -6 -33 -52 -33 -52 96 -103 c53 -57 100 -105 105 -106 14 -6 116 74 189
148 131 131 231 293 266 429 25 98 17 239 -18 314 -33 71 -105 142 -184 182
-54 27 -68 30 -159 30 -97 0 -104 -2 -179 -39 -65 -31 -102 -62 -220 -175
-136 -132 -190 -171 -236 -171 -29 0 -70 22 -100 55 -21 22 -25 36 -25 88 0
77 27 136 97 212 70 77 142 110 235 110 l71 -1 32 53 32 53 -103 108 c-56 59
-106 108 -110 110 -3 1 -39 -20 -80 -47z"/>
<path d="M17755 22224 c-456 -343 -513 -384 -536 -384 -10 0 -32 12 -49 26
l-31 27 -52 -58 c-29 -32 -56 -64 -60 -72 -6 -9 33 -68 122 -188 148 -197 123
-185 240 -125 34 16 61 34 61 38 0 4 -7 16 -15 26 -39 51 -23 68 214 246 90
67 181 138 202 157 l39 35 -24 -53 c-13 -30 -80 -247 -150 -483 l-127 -428
116 -155 c131 -175 114 -166 228 -112 l67 31 -20 39 c-16 31 -18 44 -10 59 13
25 683 529 722 544 25 9 31 7 61 -22 l34 -33 49 58 c27 32 55 66 62 75 12 14
-3 39 -118 192 l-131 174 -82 -37 c-86 -40 -88 -43 -66 -98 12 -28 11 -34 -6
-54 -11 -12 -118 -97 -239 -188 -288 -219 -262 -200 -252 -176 33 83 61 172
176 563 72 243 127 448 123 455 -20 34 -155 207 -161 207 -4 0 -178 -129 -387
-286z"/>
<path d="M31130 21573 c-52 -59 -128 -145 -168 -190 l-74 -83 53 -72 c28 -40
53 -74 54 -76 2 -2 20 8 40 23 21 14 41 25 44 25 34 -2 688 -581 698 -617 4
-17 -2 -34 -17 -55 -27 -36 -28 -35 79 -95 61 -34 64 -35 80 -17 10 11 73 82
141 159 68 77 137 154 153 172 l30 32 -53 73 c-29 40 -54 74 -55 76 -2 2 -20
-8 -40 -23 -45 -30 -42 -30 -80 -6 -33 20 -593 514 -638 563 -31 32 -31 66 -1
99 8 8 14 18 14 22 0 6 -125 82 -152 92 -8 3 -52 -39 -108 -102z"/>
<path d="M19238 20910 c-61 -11 -143 -49 -187 -86 -19 -16 -139 -151 -267
-301 -128 -149 -242 -274 -254 -278 -13 -4 -34 1 -57 15 -19 11 -36 20 -38 18
-1 -2 -21 -38 -44 -82 -42 -76 -42 -79 -24 -96 39 -39 329 -283 340 -287 10
-4 98 55 147 98 5 4 -3 22 -18 39 -29 35 -31 45 -13 76 23 41 447 533 479 555
74 53 179 31 279 -59 90 -81 117 -177 72 -254 -25 -42 -423 -512 -462 -545
-33 -28 -51 -29 -85 -2 -15 12 -31 18 -36 13 -4 -5 -26 -43 -49 -84 l-40 -76
194 -164 c107 -91 200 -164 208 -164 8 1 44 25 81 54 l66 52 -25 30 c-27 32
-30 49 -14 79 5 11 102 128 215 260 113 132 221 262 241 290 99 139 97 328 -7
504 -68 115 -238 268 -375 338 -101 51 -234 74 -327 57z"/>
<path d="M30491 20789 c-186 -48 -357 -145 -496 -284 -117 -116 -166 -201
-186 -322 -37 -223 133 -449 351 -469 98 -10 203 21 400 116 190 92 228 99
280 53 114 -102 -50 -309 -255 -321 -47 -3 -82 1 -105 10 -34 15 -36 14 -82
-21 -26 -20 -47 -41 -48 -47 0 -10 107 -254 115 -262 2 -2 34 6 72 18 225 72
438 220 542 376 85 126 112 266 75 381 -35 108 -137 216 -236 249 -61 20 -185
20 -262 -1 -32 -8 -116 -44 -186 -79 -211 -107 -275 -115 -334 -45 -57 67 -42
144 43 229 108 108 240 145 361 101 l61 -22 45 36 c24 20 44 41 44 46 0 9 -87
206 -112 252 l-13 25 -74 -19z"/>
<path d="M21083 19441 l-162 -118 -138 -7 c-198 -10 -255 -17 -250 -30 3 -7
54 -80 115 -164 l110 -152 7 -127 c3 -71 9 -161 13 -201 l7 -74 165 120 165
120 160 7 c88 4 177 10 198 14 l38 6 -118 164 -118 164 -10 193 c-6 106 -13
195 -16 198 -2 3 -77 -48 -166 -113z"/>
<path d="M28711 19349 l-12 -202 -116 -159 c-63 -87 -112 -162 -109 -166 4 -3
91 -11 195 -17 103 -7 194 -16 202 -20 8 -5 81 -58 162 -118 82 -59 152 -106
155 -102 3 3 11 92 18 198 l11 193 112 152 c61 84 114 158 117 166 4 11 -24
15 -148 21 -250 12 -234 7 -388 121 -74 55 -147 108 -161 117 l-25 17 -13
-201z"/>
<path d="M27244 19033 l-131 -35 -19 -56 c-31 -92 -84 -164 -160 -218 -38 -26
-71 -49 -73 -50 -5 -4 38 -177 49 -194 7 -12 19 -9 71 15 35 17 84 46 109 66
l46 36 93 -356 c110 -418 110 -392 -9 -430 -41 -14 -76 -25 -78 -27 -2 -1 15
-38 37 -83 25 -49 47 -81 57 -81 8 0 162 39 342 86 l327 86 -4 92 c-1 50 -5
93 -7 95 -2 3 -38 -3 -78 -13 -76 -18 -98 -15 -124 17 -9 10 -226 812 -287
1060 -4 15 -12 27 -19 26 -6 0 -70 -17 -142 -36z"/>
<path d="M22705 18999 c-89 -73 -186 -109 -290 -109 l-44 0 -21 -72 c-12 -40
-25 -85 -30 -100 -5 -15 -6 -29 -2 -32 19 -11 162 -16 202 -7 24 5 46 8 48 7
6 -6 -190 -681 -204 -703 -21 -33 -54 -37 -132 -15 l-69 20 -7 -61 c-3 -33 -6
-77 -6 -97 l0 -37 337 -96 c185 -53 337 -96 338 -94 18 29 85 158 85 165 0 4
-24 14 -52 21 -73 19 -107 38 -118 66 -7 18 24 141 145 562 84 296 152 539
150 541 -4 4 -267 82 -275 81 -3 0 -27 -18 -55 -40z"/>
<path d="M23930 18765 c-150 -34 -255 -115 -286 -221 -39 -134 21 -254 177
-355 l49 -32 -98 -48 c-172 -83 -246 -182 -247 -329 0 -62 5 -85 28 -131 88
-181 368 -291 701 -276 237 10 388 82 453 215 24 48 28 70 28 137 0 66 -5 90
-26 135 -37 76 -87 130 -175 189 l-76 51 29 10 c136 51 232 134 258 225 54
184 -81 344 -351 416 -105 28 -367 36 -464 14z m377 -226 c100 -48 110 -149
22 -223 -39 -33 -122 -76 -146 -76 -24 0 -108 65 -147 113 -42 52 -44 123 -5
162 58 58 183 69 276 24z m-32 -621 c64 -58 95 -117 95 -181 0 -92 -91 -153
-227 -151 -60 1 -84 7 -139 34 -175 86 -139 249 79 355 l69 33 35 -20 c19 -12
59 -43 88 -70z"/>
<path d="M25790 18773 c-90 -7 -197 -36 -278 -74 -215 -103 -313 -311 -257
-547 55 -232 237 -352 514 -340 120 6 188 27 272 85 l52 35 -7 -33 c-39 -199
-238 -322 -491 -305 -49 3 -103 9 -118 12 l-28 6 7 -83 c4 -46 10 -93 15 -105
13 -35 85 -49 254 -49 126 0 163 4 230 23 226 65 380 211 452 427 26 75 27 91
28 265 0 207 -9 259 -70 388 -97 206 -312 317 -575 295z m171 -258 c57 -41 99
-118 106 -195 8 -90 -11 -145 -72 -206 -42 -42 -61 -54 -117 -68 -157 -43
-272 32 -301 197 -21 127 27 236 126 283 44 21 64 24 134 22 72 -3 86 -6 124
-33z"/>
<path d="M28144 11956 l-99 -93 -40 14 c-69 24 -296 81 -390 97 -375 64 -726
31 -994 -95 -424 -199 -668 -597 -648 -1058 13 -302 105 -524 302 -726 163
-168 296 -253 767 -491 372 -189 519 -281 643 -408 152 -154 213 -289 222
-494 20 -405 -211 -716 -603 -814 -128 -32 -327 -32 -439 0 -347 99 -606 432
-785 1010 l-32 102 -79 0 -79 0 0 -705 0 -705 73 0 72 0 63 120 c35 66 64 120
66 120 1 0 38 -20 82 -45 133 -76 309 -137 499 -171 149 -27 457 -25 625 4
242 42 427 112 602 228 253 168 430 420 498 708 44 182 43 415 -1 590 -29 115
-114 285 -194 383 -158 197 -340 325 -825 581 -378 200 -477 259 -618 376
-134 109 -239 264 -278 408 -25 91 -29 223 -10 318 57 290 286 488 605 523
115 12 248 -6 356 -49 280 -112 520 -418 705 -896 l53 -138 69 0 68 0 0 118
c0 64 -7 335 -15 602 -8 267 -15 529 -15 583 l0 97 -63 0 -64 0 -99 -94z"/>
<path d="M19982 11990 l-113 -50 -1395 0 -1394 0 0 -115 0 -115 38 0 c20 0
161 -7 312 -15 193 -11 278 -19 287 -28 34 -34 34 -3711 0 -3743 -8 -8 -88
-16 -227 -23 -118 -6 -259 -14 -312 -17 l-98 -7 0 -108 0 -109 1608 2 1607 3
22 45 c40 81 64 274 108 880 14 190 25 360 25 378 l0 33 -76 -3 -76 -3 -47
-135 c-122 -348 -255 -599 -399 -752 -120 -127 -52 -114 -802 -155 -455 -24
-655 -32 -662 -25 -13 13 -27 667 -27 1321 l-1 464 488 -8 c268 -4 510 -10
537 -14 l50 -6 119 -272 119 -273 61 0 61 0 0 670 0 670 -62 0 -62 0 -116
-224 c-63 -123 -121 -228 -128 -234 -13 -11 -344 -26 -804 -38 l-263 -7 1 434
c1 648 14 1238 27 1251 9 9 144 5 539 -16 291 -15 564 -29 608 -33 l80 -5 65
-67 c76 -78 159 -218 254 -427 51 -111 144 -343 179 -446 5 -15 19 -18 77 -18
l71 0 -6 83 c-3 45 -12 321 -20 612 -8 292 -18 567 -21 613 l-6 82 -56 0 c-46
0 -79 -10 -170 -50z"/>
<path d="M31956 11928 c-6 -111 -46 -1197 -46 -1250 0 -28 1 -28 68 -28 l67 0
23 68 c112 323 254 652 332 769 42 62 98 121 132 139 41 21 800 21 818 -1 28
-33 38 -1489 20 -2900 -8 -602 -13 -792 -23 -801 -8 -8 -93 -16 -247 -23 -129
-6 -281 -14 -337 -17 l-103 -6 0 -109 0 -109 1035 0 1035 0 0 110 c0 81 -3
110 -12 110 -7 0 -164 7 -348 16 -258 12 -338 19 -349 30 -21 20 -29 561 -29
1854 0 1048 9 1811 23 1843 7 16 35 17 398 17 l390 0 42 -24 c105 -62 242
-321 400 -756 35 -96 67 -183 70 -192 6 -15 20 -18 76 -18 l69 0 -5 98 c-8
134 -45 1157 -45 1232 l0 60 -66 0 c-62 0 -73 -4 -154 -50 l-87 -50 -1421 0
-1421 0 -85 50 c-78 46 -90 50 -149 50 l-65 0 -6 -112z"/>
<path d="M49730 11990 l-105 -48 -1402 -1 -1403 -1 0 -115 0 -115 38 0 c20 0
158 -7 306 -15 212 -11 273 -18 285 -30 21 -21 29 -543 30 -1835 0 -1161 -10
-1885 -26 -1901 -8 -8 -493 -46 -615 -49 -16 0 -18 -12 -18 -110 l0 -110 1000
0 1000 0 0 110 c0 107 -1 110 -22 110 -13 1 -166 9 -341 19 -254 15 -322 22
-334 34 -13 13 -16 90 -24 523 -4 280 -8 677 -9 882 l0 372 243 -1 c133 0 367
-4 521 -8 247 -6 280 -9 291 -24 7 -10 66 -143 130 -297 l118 -280 62 0 61 0
0 690 -1 690 -61 0 -61 0 -111 -218 c-61 -120 -120 -226 -130 -235 -19 -17
-223 -28 -794 -43 l-268 -7 0 74 c0 41 5 416 10 834 9 641 13 762 25 774 13
13 91 11 617 -13 590 -27 604 -29 639 -51 103 -66 261 -355 419 -765 l68 -175
66 -3 66 -3 0 98 c0 67 -34 1162 -40 1291 0 1 -28 2 -62 1 -53 -1 -80 -9 -168
-49z"/>
<path d="M43921 11998 c-675 -51 -1249 -436 -1553 -1043 -207 -412 -299 -929
-258 -1451 35 -439 150 -795 362 -1115 109 -165 303 -362 462 -468 310 -206
638 -307 1062 -327 410 -20 815 82 1151 287 403 247 706 671 849 1189 120 435
135 972 38 1410 -59 267 -191 574 -331 769 -327 455 -812 709 -1433 751 -162
11 -188 11 -349 -2z m399 -303 c619 -101 986 -628 1069 -1535 14 -147 14 -571
1 -720 -81 -896 -453 -1426 -1077 -1535 -180 -31 -441 -14 -606 40 -518 169
-824 679 -897 1495 -15 160 -15 571 0 720 88 905 451 1424 1075 1534 108 19
318 19 435 1z"/>
<path d="M21658 11943 l-488 -3 0 -115 0 -115 43 0 c23 0 165 -7 316 -15 199
-10 278 -18 288 -28 41 -40 42 -3703 1 -3743 -9 -9 -104 -17 -319 -28 -168 -9
-311 -16 -317 -16 -9 0 -12 -33 -12 -115 l0 -115 960 0 960 0 0 115 c0 68 -4
115 -10 115 -5 0 -137 7 -292 16 -200 11 -287 19 -296 28 -17 17 -31 556 -32
1197 l0 456 161 7 c89 3 227 13 307 22 l147 15 36 -40 c131 -146 424 -678 796
-1446 118 -242 221 -450 229 -462 l14 -23 480 0 480 0 0 115 0 115 -47 0
c-155 0 -256 44 -366 159 -96 100 -151 185 -367 566 -386 679 -533 924 -637
1063 -30 41 -53 75 -51 76 1 1 39 15 83 30 114 39 309 135 400 196 227 153
378 370 432 621 28 129 25 376 -5 489 -119 443 -529 741 -1142 830 -199 29
-469 40 -890 38 -206 -2 -594 -4 -862 -5z m1433 -277 c419 -56 680 -257 763
-587 42 -169 42 -365 0 -539 -22 -89 -92 -233 -148 -302 -184 -229 -578 -369
-1113 -395 l-133 -6 0 159 c1 87 5 498 9 912 7 608 11 756 22 769 12 14 39 15
249 10 129 -3 287 -13 351 -21z"/>
<path d="M0 11825 l0 -115 33 0 c17 0 153 -7 301 -15 209 -11 273 -18 285 -29
12 -13 15 -193 18 -1353 3 -1151 5 -1356 19 -1463 71 -559 342 -940 800 -1125
324 -132 801 -169 1213 -95 221 40 445 134 600 251 278 209 441 514 513 956
19 123 20 178 27 1470 5 1197 8 1344 22 1358 12 13 68 18 290 30 151 8 291 15
312 15 l37 0 0 115 0 115 -845 0 -845 0 0 -115 0 -115 38 0 c20 0 152 -7 291
-15 176 -10 259 -19 267 -27 26 -27 47 -2421 23 -2678 -49 -549 -215 -852
-551 -1009 -277 -130 -741 -143 -1028 -29 -256 102 -423 318 -499 644 -52 224
-53 258 -52 1539 1 1265 5 1518 27 1535 10 9 372 39 482 40 l32 0 0 115 0 115
-905 0 -905 0 0 -115z"/>
<path d="M5000 11825 l0 -115 33 0 c17 0 155 -7 306 -15 204 -11 278 -18 288
-28 20 -20 32 -748 32 -1952 0 -1152 -11 -1771 -31 -1791 -9 -9 -77 -16 -223
-23 -115 -6 -254 -14 -307 -17 l-98 -6 0 -109 0 -109 840 0 840 0 0 110 c0 73
-4 110 -11 110 -6 0 -135 7 -287 16 -213 12 -280 19 -292 30 -13 12 -16 75
-21 382 -13 704 -31 2459 -27 2665 l3 208 305 -433 c167 -238 551 -782 853
-1208 302 -426 732 -1033 955 -1347 l405 -573 158 0 159 0 0 1538 c1 1762 10
2486 32 2508 11 11 81 18 289 29 151 8 289 15 307 15 l32 0 0 115 0 115 -840
0 -840 0 0 -115 0 -115 33 0 c17 0 149 -7 292 -15 178 -10 263 -19 271 -27 12
-13 25 -836 39 -2393 6 -569 5 -589 -12 -565 -10 13 -353 504 -763 1090 -410
586 -881 1256 -1046 1490 -166 234 -336 475 -380 537 l-79 112 -607 1 -608 0
0 -115z"/>
<path d="M10070 11825 l0 -115 38 0 c20 0 161 -7 312 -15 205 -11 278 -19 288
-29 41 -40 41 -3702 1 -3741 -10 -10 -95 -18 -314 -29 -165 -9 -306 -16 -312
-16 -10 0 -13 -29 -13 -110 l0 -110 970 0 970 0 0 110 c0 80 -3 110 -12 110
-7 0 -145 7 -308 16 -213 11 -299 19 -309 29 -19 18 -30 764 -30 2000 1 1244
9 1719 30 1740 12 12 72 18 285 30 148 8 286 15 307 15 l37 0 0 115 0 115
-970 0 -970 0 0 -115z"/>
<path d="M12440 11826 l0 -114 158 -6 c86 -3 173 -10 192 -14 l35 -7 153 -370
c118 -283 1504 -3650 1529 -3713 4 -9 29 -12 96 -10 l90 3 309 800 c433 1122
972 2515 1136 2935 132 338 141 355 168 362 16 4 100 10 187 14 l157 6 0 114
0 114 -705 0 -705 0 0 -115 0 -115 28 0 c99 0 479 -24 488 -32 15 -11 -16
-115 -198 -668 -204 -618 -447 -1321 -779 -2252 -35 -98 -66 -174 -70 -170 -8
8 -305 776 -748 1932 -175 459 -346 905 -379 990 -45 117 -57 158 -49 166 10
10 407 34 545 34 l32 0 0 115 0 115 -835 0 -835 0 0 -114z"/>
<path d="M29320 11825 l0 -115 38 0 c20 0 161 -7 312 -15 218 -12 278 -18 290
-30 13 -14 15 -222 15 -1865 0 -1836 0 -1850 -20 -1869 -18 -18 -47 -21 -315
-35 -163 -9 -301 -16 -308 -16 -9 0 -12 -30 -12 -110 l0 -110 965 0 965 0 0
110 c0 61 -4 110 -9 110 -5 0 -141 7 -303 16 -266 14 -295 17 -313 35 -20 19
-20 33 -20 1869 0 1648 2 1851 15 1865 13 12 71 18 290 30 151 8 290 15 308
15 l32 0 0 115 0 115 -965 0 -965 0 0 -115z"/>
<path d="M36020 11826 l0 -114 168 -6 c276 -11 245 1 332 -129 78 -118 414
-636 795 -1227 126 -195 293 -453 372 -574 l143 -219 0 -246 c0 -539 -20
-1375 -33 -1388 -8 -7 -90 -15 -232 -22 -121 -6 -262 -14 -312 -17 l-93 -6 0
-109 0 -109 985 0 985 0 0 110 c0 78 -3 110 -12 110 -6 0 -151 7 -322 16 -222
11 -315 19 -324 28 -15 15 -31 664 -32 1299 l0 358 232 387 c127 213 321 538
431 722 200 334 464 761 568 917 63 96 44 89 287 99 l162 6 0 114 0 114 -690
0 -690 0 0 -115 0 -115 27 0 c98 0 410 -24 421 -32 12 -11 -7 -51 -246 -503
-142 -268 -663 -1221 -696 -1272 -5 -7 -465 736 -820 1327 -192 318 -261 441
-253 448 10 8 348 32 440 32 l27 0 0 115 0 115 -810 0 -810 0 0 -114z"/>
<path d="M5320 4360 c-56 -49 -106 -90 -111 -90 -5 0 -55 13 -112 29 -276 77
-489 104 -827 105 -334 1 -509 -22 -765 -99 -696 -211 -1184 -726 -1365 -1440
-60 -237 -75 -369 -75 -665 0 -296 15 -427 75 -665 168 -666 600 -1150 1243
-1389 290 -108 581 -151 962 -143 318 7 524 41 800 132 209 68 381 157 439
226 l26 31 1 396 c1 585 11 958 26 973 8 8 96 19 240 30 125 9 229 17 231 18
1 1 2 51 2 111 l0 110 -895 0 -895 0 0 -110 c0 -60 1 -111 3 -111 1 -1 140 -9
309 -18 267 -14 310 -19 325 -34 17 -16 18 -62 21 -658 4 -610 3 -642 -15
-661 -70 -77 -365 -148 -618 -148 -905 0 -1513 691 -1587 1806 -17 259 8 582
63 824 99 432 327 794 626 993 219 146 427 213 693 223 175 7 292 -9 435 -60
340 -122 614 -433 813 -926 l38 -95 73 -3 72 -3 -7 168 c-3 92 -14 407 -23
698 l-16 530 -51 3 -52 3 -102 -91z"/>
<path d="M11780 4401 c0 -64 -37 -1104 -45 -1243 l-5 -108 68 0 69 0 43 123
c189 541 349 831 475 866 25 7 173 11 406 11 320 0 368 -2 379 -16 22 -26 29
-378 29 -1559 0 -1271 -11 -2128 -28 -2148 -8 -10 -87 -17 -313 -26 -167 -6
-320 -14 -340 -17 l-38 -6 0 -109 0 -109 1035 0 1035 0 0 109 0 109 -37 6
c-21 3 -176 11 -345 17 -271 11 -310 14 -324 30 -14 15 -17 120 -27 921 -12
1029 1 2738 22 2777 12 21 14 21 379 21 228 0 381 -4 405 -11 78 -21 154 -114
250 -304 57 -114 179 -415 238 -587 l34 -98 68 0 c67 0 67 0 67 28 0 15 -11
324 -25 687 -14 363 -25 666 -25 673 0 8 -19 12 -61 12 -55 0 -68 -5 -154 -55
l-93 -55 -1415 0 -1416 0 -94 55 c-86 51 -99 55 -155 55 l-62 0 0 -49z"/>
<path d="M24005 4395 l-120 -54 -1392 0 -1393 -1 0 -110 c0 -106 1 -110 23
-114 12 -3 150 -10 305 -17 231 -10 287 -15 303 -28 19 -15 20 -47 28 -921 12
-1174 -2 -2795 -24 -2820 -13 -14 -57 -18 -287 -29 -150 -6 -290 -14 -310 -17
l-38 -6 0 -109 0 -109 1598 0 1599 0 20 23 c40 45 61 145 88 417 16 166 65
814 65 868 l0 32 -77 0 -78 0 -44 -133 c-137 -414 -351 -769 -513 -851 l-53
-26 -645 -35 c-354 -18 -647 -32 -649 -29 -15 14 -20 224 -27 972 l-7 823 94
-6 c52 -2 290 -7 529 -10 358 -5 438 -8 449 -20 8 -8 65 -130 127 -272 l112
-258 63 -3 64 -3 0 666 0 666 -65 -3 -65 -3 -111 -220 c-79 -154 -119 -223
-136 -231 -27 -14 -540 -34 -852 -34 l-209 0 7 768 c7 695 13 903 26 915 3 3
275 -10 605 -27 575 -30 602 -33 637 -54 108 -67 279 -382 448 -829 l43 -113
68 0 68 0 -4 78 c-3 42 -12 316 -20 607 -8 292 -18 572 -21 623 l-6 92 -51 -1
c-40 -1 -80 -13 -172 -54z"/>
<path d="M47405 4359 c-71 -64 -106 -89 -120 -86 -11 3 -83 21 -160 40 -473
122 -998 129 -1426 22 -576 -146 -1031 -496 -1293 -997 -129 -247 -205 -504
-242 -819 -20 -179 -15 -566 10 -729 122 -778 541 -1335 1216 -1613 434 -179
1005 -227 1524 -127 310 60 638 192 746 300 l37 37 5 677 c5 605 7 679 22 694
12 13 62 19 238 31 l223 16 3 113 3 112 -891 0 -890 0 0 -110 c0 -60 1 -111 3
-111 1 -1 140 -9 309 -18 262 -14 310 -19 325 -33 15 -16 17 -72 21 -642 3
-343 2 -636 -2 -650 -14 -55 -153 -116 -347 -152 -132 -25 -449 -25 -574 -1
-615 120 -1040 560 -1220 1262 -63 246 -79 384 -79 695 0 375 32 596 125 868
216 627 706 1002 1310 1002 486 0 857 -273 1120 -825 31 -66 69 -153 85 -192
l28 -73 72 0 72 0 -4 73 c-2 39 -11 308 -19 597 -8 289 -18 571 -21 628 l-6
102 -51 0 c-51 -1 -54 -2 -152 -91z"/>
<path d="M8670 4400 c-592 -65 -1083 -360 -1400 -841 -188 -285 -312 -645
-362 -1049 -20 -160 -17 -614 6 -765 73 -502 249 -889 539 -1192 288 -300 656
-477 1120 -538 137 -17 441 -20 567 -5 611 76 1101 393 1415 917 268 446 383
1076 309 1699 -36 306 -111 555 -245 814 -87 168 -176 288 -324 435 -280 281
-615 445 -1045 510 -126 19 -461 27 -580 15z m454 -306 c227 -37 421 -137 587
-303 239 -241 390 -604 455 -1101 21 -167 30 -634 15 -811 -56 -638 -245
-1090 -560 -1339 -200 -158 -407 -233 -676 -246 -437 -22 -797 155 -1028 501
-198 299 -300 670 -328 1202 -33 597 69 1163 271 1514 268 464 718 672 1264
583z"/>
<path d="M30563 4343 l-293 -3 0 -110 c0 -61 1 -111 3 -111 1 -1 141 -9 311
-18 270 -14 310 -19 321 -34 19 -27 29 -1062 22 -2490 -5 -1056 -7 -1221 -20
-1241 -15 -22 -22 -23 -289 -35 -150 -6 -290 -14 -310 -17 l-38 -6 0 -107 0
-108 413 -6 c614 -10 1406 -8 1542 4 912 78 1474 434 1606 1017 26 115 35 315
20 420 -64 436 -423 736 -952 795 l-113 13 64 18 c77 21 205 79 281 128 214
137 358 349 410 603 21 102 25 295 8 391 -84 479 -521 785 -1244 873 -250 31
-565 35 -1742 24z m1555 -278 c405 -63 640 -248 723 -570 12 -48 22 -130 26
-205 18 -394 -106 -657 -367 -783 -180 -87 -311 -107 -694 -107 l-269 0 6 493
c15 1067 18 1158 40 1180 19 19 29 20 226 14 113 -3 252 -13 309 -22z m294
-1970 c261 -34 430 -112 567 -262 197 -214 247 -622 117 -945 -100 -248 -324
-427 -639 -512 -174 -48 -265 -58 -572 -63 -274 -5 -291 -4 -307 13 -14 17
-17 91 -27 714 -6 382 -11 779 -11 883 l0 187 379 0 c279 0 410 -4 493 -15z"/>
<path d="M39908 4343 l-328 -3 0 -109 0 -109 28 -6 c15 -3 156 -10 315 -17
250 -11 289 -15 303 -30 14 -15 17 -123 27 -921 12 -1001 -1 -2777 -21 -2815
-10 -18 -29 -20 -294 -32 -156 -6 -300 -14 -320 -17 l-38 -6 0 -109 0 -109
960 0 960 0 0 109 0 109 -37 6 c-21 3 -154 11 -296 17 -179 9 -261 16 -268 25
-13 16 -28 641 -29 1207 l0 447 29 0 c70 0 394 22 488 34 l103 12 43 -55 c167
-215 444 -725 849 -1566 82 -170 156 -318 165 -327 15 -17 51 -18 495 -18
l478 0 0 110 c0 61 -1 110 -2 110 -2 1 -48 5 -104 9 -122 10 -184 36 -271 116
-110 100 -166 184 -453 690 -338 596 -518 893 -607 1003 -19 24 -34 45 -32 47
2 1 49 20 104 40 478 177 738 442 816 830 20 101 18 360 -4 449 -43 171 -115
301 -241 433 -226 238 -540 373 -998 430 -110 13 -248 16 -813 18 -374 0 -827
0 -1007 -2z m1487 -264 c324 -28 520 -104 681 -265 67 -66 90 -98 128 -175 79
-162 106 -321 87 -519 -47 -498 -338 -747 -988 -844 -116 -18 -421 -41 -429
-33 -8 7 13 1823 21 1836 8 14 339 14 500 0z"/>
<path d="M15940 4231 c0 -96 2 -110 18 -115 9 -2 147 -10 305 -17 177 -8 294
-17 303 -24 14 -9 17 -82 24 -530 18 -1065 6 -3189 -19 -3219 -7 -9 -91 -16
-293 -25 -156 -7 -295 -15 -310 -17 l-28 -6 0 -109 0 -109 920 0 920 0 0 109
0 109 -27 6 c-16 2 -133 10 -260 17 -197 11 -235 15 -248 30 -14 14 -17 94
-25 580 -5 310 -9 700 -10 867 l0 302 1045 0 1045 0 0 -142 c0 -79 -5 -469
-10 -867 -9 -615 -13 -727 -25 -741 -12 -14 -56 -19 -248 -29 -127 -7 -244
-15 -259 -17 l-28 -6 0 -109 0 -109 920 0 920 0 0 109 0 109 -37 6 c-21 3
-161 11 -311 17 -203 9 -275 16 -284 26 -24 30 -37 2263 -19 3297 7 384 10
441 24 451 10 7 119 16 299 24 156 6 293 14 306 17 21 4 22 8 22 114 l0 110
-920 0 -920 0 0 -109 c0 -96 2 -110 18 -115 9 -2 124 -10 255 -17 190 -10 243
-16 258 -28 18 -15 20 -43 29 -541 5 -289 10 -657 10 -817 l0 -293 -1045 0
-1045 0 1 298 c0 163 4 531 8 816 8 505 9 520 29 536 16 14 65 19 259 29 131
7 246 15 256 17 15 5 17 19 17 115 l0 109 -920 0 -920 0 0 -109z"/>
<path d="M25190 4230 c0 -106 1 -110 23 -114 12 -3 150 -10 305 -17 232 -10
287 -15 303 -28 18 -15 19 -55 30 -996 14 -1206 0 -2717 -26 -2745 -13 -14
-57 -18 -287 -29 -150 -6 -290 -14 -310 -17 l-38 -6 0 -109 0 -109 845 0 845
0 0 109 0 109 -37 6 c-21 3 -152 11 -291 17 -207 10 -255 15 -267 28 -11 14
-16 123 -25 636 -11 610 -30 2618 -26 2623 2 1 108 -148 236 -330 129 -183
664 -940 1190 -1683 526 -742 987 -1394 1025 -1448 l68 -97 163 0 162 0 4
2011 3 2011 21 17 c18 15 64 19 305 30 156 6 294 14 307 17 21 4 22 8 22 114
l0 110 -845 0 -845 0 0 -109 c0 -96 2 -110 18 -114 9 -3 140 -11 290 -18 230
-11 274 -15 287 -29 13 -14 16 -115 25 -676 14 -947 30 -2298 26 -2301 -2 -2
-205 286 -452 639 -775 1110 -1345 1921 -1676 2386 l-159 222 -609 0 -610 0 0
-110z"/>
<path d="M34580 4230 c0 -106 1 -110 23 -114 12 -3 146 -10 297 -17 151 -6
282 -15 291 -20 26 -13 30 -227 30 -1484 0 -687 3 -1192 9 -1255 75 -794 516
-1244 1302 -1329 144 -16 467 -14 603 4 674 89 1079 460 1210 1109 42 211 45
287 46 1225 0 493 4 1080 8 1305 7 360 9 410 24 421 10 7 116 16 304 24 158 7
296 15 306 17 15 5 17 19 17 115 l0 109 -840 0 -841 0 3 -112 3 -113 287 -15
c191 -10 291 -19 299 -27 14 -14 24 -479 34 -1648 5 -563 4 -827 -4 -950 -26
-373 -90 -607 -217 -801 -129 -197 -333 -322 -609 -374 -96 -19 -380 -24 -491
-10 -185 23 -335 80 -460 174 -163 122 -278 346 -328 636 -36 210 -39 350 -32
1669 5 1143 7 1287 21 1300 12 13 67 19 268 31 l252 15 3 113 3 112 -911 0
-910 0 0 -110z"/>
</g>
</svg>
