<?xml version="1.0" standalone="no"?>
<!DOCTYPE svg PUBLIC "-//W3C//DTD SVG 20010904//EN"
 "http://www.w3.org/TR/2001/REC-SVG-20010904/DTD/svg10.dtd">
<svg version="1.0" xmlns="http://www.w3.org/2000/svg"
 width="1000.000000pt" height="1000.000000pt" viewBox="0 0 1000.000000 1000.000000"
 preserveAspectRatio="xMidYMid meet">
<metadata>
Created by potrace 1.16, written by Peter Selinger 2001-2019
</metadata>
<g transform="translate(0.000000,1000.000000) scale(0.100000,-0.100000)"
fill="#000000" stroke="none">
<path d="M4770 7985 c-124 -26 -204 -63 -300 -140 -101 -81 -181 -196 -209
-303 -18 -66 -29 -192 -22 -247 l7 -50 16 30 c22 41 76 89 118 106 48 19 150
15 300 -10 220 -37 344 -25 485 45 67 34 199 133 209 157 8 20 44 -33 66 -97
38 -112 21 -263 -43 -395 -81 -167 -289 -290 -490 -291 -119 0 -215 28 -547
164 -168 68 -275 91 -385 82 -193 -15 -319 -70 -441 -191 -132 -131 -184 -266
-184 -476 0 -160 33 -269 115 -384 83 -116 185 -194 320 -246 67 -26 98 -32
196 -36 227 -11 402 60 547 222 42 48 112 159 112 178 0 3 -21 -3 -47 -15 -60
-26 -139 -21 -211 16 -28 14 -116 75 -196 135 -152 114 -204 144 -289 167 -75
20 -245 17 -341 -5 l-79 -19 6 68 c4 44 16 91 37 136 134 296 464 405 775 256
148 -72 301 -222 376 -369 39 -76 43 -91 50 -190 18 -231 -28 -773 -89 -1070
l-19 -93 274 0 275 0 -6 23 c-4 12 -17 92 -31 177 -37 242 -48 436 -43 752 5
269 6 286 30 354 77 219 307 417 546 470 140 31 314 4 431 -68 137 -84 251
-267 251 -402 l0 -43 -87 19 c-107 24 -298 21 -379 -5 -53 -17 -169 -93 -316
-206 -147 -113 -249 -144 -342 -103 -25 12 -46 17 -46 12 0 -28 84 -145 150
-211 138 -138 297 -196 504 -186 187 9 313 64 446 197 132 132 190 279 191
485 1 92 -4 123 -25 191 -51 160 -169 299 -322 381 -114 60 -186 77 -324 76
-108 0 -156 -9 -282 -50 -13 -4 -10 10 17 74 72 166 84 301 40 440 -111 351
-449 559 -795 488z"/>
<path d="M5728 5054 c-142 -34 -245 -119 -313 -256 l-43 -88 -32 50 c-92 144
-268 240 -440 240 -96 0 -171 -20 -246 -64 -55 -32 -157 -125 -124 -113 118
44 159 52 270 52 109 0 118 -2 185 -33 88 -42 120 -72 156 -147 35 -72 39
-157 12 -244 -23 -72 -93 -146 -148 -157 -63 -11 -156 1 -217 30 -94 45 -250
227 -359 421 -42 74 -143 183 -217 232 -168 111 -376 112 -568 2 -59 -34 -134
-109 -162 -165 -75 -147 -67 -338 21 -484 148 -249 475 -345 619 -182 31 36
80 133 91 182 5 24 5 24 -16 -5 -52 -72 -142 -153 -182 -164 -91 -25 -185 -2
-262 63 -76 64 -106 200 -64 292 26 57 88 124 136 145 59 27 157 25 220 -5 61
-29 94 -64 171 -180 84 -126 206 -270 294 -344 202 -170 438 -209 647 -107
115 56 191 140 399 434 109 155 194 226 285 238 56 8 166 -29 217 -73 62 -52
85 -104 86 -189 1 -88 -29 -158 -88 -213 -52 -48 -101 -65 -181 -66 -96 0
-181 54 -245 154 -18 28 -35 48 -38 46 -10 -11 40 -123 76 -171 75 -99 179
-136 304 -110 148 31 291 145 364 292 36 71 39 86 43 173 5 157 -31 267 -121
366 -54 59 -170 124 -264 149 -71 18 -189 18 -266 -1z"/>
<path d="M5322 3930 c-97 -26 -205 -84 -248 -133 -18 -22 -34 -44 -34 -48 0
-3 29 4 65 17 93 34 222 48 314 35 81 -11 118 -31 140 -76 35 -71 -63 -141
-213 -152 -106 -8 -201 21 -366 113 -397 221 -586 282 -748 240 -154 -39 -232
-127 -232 -263 0 -97 82 -212 185 -259 121 -56 258 -53 381 7 56 28 144 102
133 113 -2 3 -31 -2 -64 -10 -89 -20 -250 -18 -300 5 -46 20 -92 70 -101 108
-14 53 34 102 109 110 63 7 133 -21 407 -163 135 -70 274 -138 310 -151 240
-91 534 -60 669 70 60 58 81 106 81 192 0 119 -63 203 -183 245 -74 26 -205
26 -305 0z"/>
<path d="M1432 2648 c3 -7 21 -14 41 -16 19 -2 41 -10 48 -18 9 -11 14 -92 19
-287 7 -301 10 -314 75 -386 56 -62 121 -85 240 -85 83 0 109 3 151 22 63 29
116 82 146 147 21 47 23 67 28 311 5 284 8 294 61 294 19 0 29 5 29 15 0 13
-23 15 -146 15 -112 0 -145 -3 -142 -12 3 -7 22 -16 42 -19 21 -3 42 -12 47
-20 5 -8 9 -125 9 -260 0 -272 -8 -325 -57 -371 -49 -45 -90 -61 -154 -56 -75
5 -128 40 -160 105 -23 46 -24 58 -27 305 -2 170 0 263 7 277 7 12 23 21 43
23 17 2 33 9 36 16 3 9 -35 12 -168 12 -133 0 -171 -3 -168 -12z"/>
<path d="M2418 2221 c-5 -313 -7 -331 -49 -331 -11 0 -19 -4 -19 -10 0 -6 42
-10 105 -10 63 0 105 4 105 10 0 6 -10 10 -23 10 -13 0 -32 6 -42 14 -18 13
-20 33 -25 237 -3 123 -5 225 -5 226 0 0 34 -37 75 -84 137 -155 408 -428 416
-420 5 5 11 144 14 310 l5 301 23 6 c53 12 17 25 -73 26 -75 1 -95 -1 -95 -12
0 -9 11 -14 30 -14 18 0 33 -7 38 -17 5 -10 12 -119 15 -243 5 -218 4 -224
-14 -202 -42 52 -463 502 -469 502 -4 0 -9 -135 -12 -299z"/>
<path d="M5400 2509 c-65 -20 -110 -79 -110 -146 1 -64 31 -113 124 -198 94
-85 116 -116 116 -166 0 -48 -56 -99 -109 -99 -74 0 -121 37 -121 95 0 17 -5
25 -12 23 -8 -3 -14 -28 -16 -67 l-3 -63 -31 6 c-17 3 -46 18 -64 31 -31 24
-194 217 -194 229 0 3 15 26 34 50 44 57 60 107 53 163 -6 55 -31 90 -81 116
-32 17 -61 20 -187 22 -121 2 -149 0 -149 -11 0 -8 10 -14 25 -14 14 0 29 -8
35 -19 11 -21 12 -484 1 -536 -4 -21 -13 -31 -29 -33 -12 -2 -22 -8 -22 -13 0
-5 49 -9 111 -9 71 0 108 4 104 10 -3 6 -17 10 -29 10 -13 0 -28 6 -34 13 -11
13 -28 209 -19 223 3 5 29 7 59 6 l53 -4 63 -87 c35 -49 81 -106 103 -127 40
-39 40 -39 132 -42 51 -2 130 -6 177 -9 76 -4 90 -2 129 19 80 43 114 151 75
234 -9 19 -59 74 -112 122 -125 115 -143 160 -85 214 19 18 36 23 75 23 42 0
53 -4 74 -28 13 -15 24 -37 24 -48 0 -10 4 -19 9 -19 10 0 23 112 13 122 -13
13 -146 18 -182 7z m-479 -62 c19 -12 42 -38 51 -57 34 -66 16 -169 -33 -204
-26 -18 -84 -21 -123 -6 l-26 10 0 133 c0 74 3 137 7 140 15 16 91 6 124 -16z"/>
<path d="M7055 2503 c-3 -10 -52 -142 -107 -293 -55 -151 -110 -285 -121 -297
-11 -13 -31 -23 -44 -23 -13 0 -23 -4 -23 -10 0 -6 40 -10 100 -10 55 0 100 4
100 9 0 5 -10 11 -22 13 -33 4 -33 31 0 128 l29 85 93 0 94 0 38 -100 c21 -55
35 -108 32 -117 -5 -16 3 -18 85 -18 54 0 91 4 91 10 0 6 -8 10 -19 10 -54 0
-74 41 -258 524 -38 100 -55 122 -68 89z m46 -248 l37 -105 -74 0 c-41 0 -74
3 -74 7 0 19 64 212 69 208 3 -3 22 -53 42 -110z"/>
<path d="M3170 2493 c0 -7 9 -13 20 -13 10 0 24 -9 30 -19 11 -22 13 -500 1
-541 -4 -15 -15 -26 -29 -28 -12 -2 -22 -8 -22 -13 0 -5 49 -9 110 -9 67 0
110 4 110 10 0 6 -11 10 -24 10 -54 0 -56 9 -56 295 0 145 3 270 6 279 3 9 17
16 31 16 15 0 23 5 21 12 -7 19 -198 20 -198 1z"/>
<path d="M3430 2494 c0 -8 11 -14 25 -14 14 0 33 -9 42 -19 9 -11 68 -149 132
-308 75 -186 121 -289 131 -291 18 -3 14 -11 162 343 55 132 107 248 115 257
8 9 25 18 37 20 11 2 20 7 19 13 -2 5 -43 11 -93 11 -71 2 -90 -1 -90 -12 0
-8 10 -14 25 -14 14 0 25 -5 25 -10 0 -34 -175 -477 -183 -464 -7 13 -165 435
-169 454 -2 9 6 16 20 18 12 2 22 9 22 16 0 9 -29 13 -110 13 -86 0 -110 -3
-110 -13z"/>
<path d="M4140 2493 c0 -7 10 -13 23 -13 45 0 47 -9 47 -281 0 -143 -4 -269
-10 -283 -6 -16 -17 -26 -30 -26 -11 0 -20 -4 -20 -10 0 -16 350 -13 355 3 2
6 6 34 10 61 5 38 4 47 -7 44 -7 -3 -14 -14 -16 -26 -5 -35 -40 -52 -108 -52
-89 0 -94 8 -94 160 l0 123 65 -5 c70 -6 95 -19 95 -49 0 -31 17 -22 24 12 14
70 2 124 -19 89 -3 -5 -42 -10 -86 -10 l-79 0 0 115 0 115 66 0 c73 0 104 -12
104 -40 0 -23 18 -37 24 -18 2 7 7 33 10 58 l5 45 -180 0 c-136 0 -179 -3
-179 -12z"/>
<path d="M5750 2493 c0 -7 9 -13 20 -13 10 0 24 -9 30 -19 11 -22 13 -500 1
-541 -4 -15 -15 -26 -29 -28 -12 -2 -22 -8 -22 -13 0 -5 49 -9 110 -9 67 0
110 4 110 10 0 6 -10 10 -22 10 -53 1 -53 -1 -56 291 -3 283 -1 299 40 299 11
0 18 5 16 12 -7 19 -198 20 -198 1z"/>
<path d="M6104 2498 c-6 -9 7 -15 41 -20 16 -3 21 -14 27 -58 8 -69 7 -340 -1
-440 -5 -65 -9 -76 -28 -85 -13 -5 -23 -13 -23 -16 0 -13 323 -21 373 -10 167
39 274 193 251 366 -19 151 -115 241 -281 264 -79 12 -352 10 -359 -1z m367
-53 c62 -21 124 -76 157 -139 24 -45 27 -62 27 -141 -1 -67 -5 -99 -19 -125
-26 -49 -64 -88 -111 -113 -53 -27 -176 -35 -226 -14 l-36 15 -7 176 c-8 190
0 346 18 359 16 12 144 0 197 -18z"/>
<path d="M7440 2493 c0 -7 10 -13 23 -13 45 0 47 -9 47 -281 0 -143 -4 -269
-10 -283 -6 -16 -17 -26 -30 -26 -11 0 -20 -4 -20 -9 0 -5 78 -12 173 -16 158
-6 178 -5 238 14 132 42 209 146 217 296 5 100 -20 174 -79 235 -76 78 -174
101 -421 97 -104 -1 -138 -5 -138 -14z m385 -57 c106 -48 168 -148 168 -271 0
-177 -115 -277 -301 -262 -105 8 -102 0 -102 302 0 233 1 254 18 259 38 11
168 -5 217 -28z"/>
<path d="M8194 2501 c-11 -11 -2 -21 19 -21 46 0 47 -8 47 -295 0 -281 -2
-295 -42 -295 -10 0 -18 -4 -18 -10 0 -12 346 -14 354 -2 3 5 8 32 12 60 7 58
-7 72 -24 23 -14 -41 -42 -52 -114 -49 -82 4 -88 15 -88 166 l0 112 48 -1 c78
-2 105 -11 112 -38 11 -49 28 -33 32 31 2 35 2 65 0 68 -1 2 -12 -1 -22 -8
-11 -7 -53 -12 -95 -12 l-75 0 0 115 0 115 70 0 c57 0 74 -4 90 -20 11 -11 20
-27 20 -35 0 -8 5 -15 10 -15 6 0 10 13 10 29 0 16 3 41 6 57 l5 29 -176 0
c-97 0 -179 -2 -181 -4z"/>
<path d="M4432 1628 c3 -7 21 -16 41 -19 68 -11 59 5 237 -429 73 -179 139
-331 146 -339 21 -22 37 -1 85 107 186 427 274 620 291 639 11 12 32 23 46 25
14 2 27 9 30 16 3 9 -28 12 -133 12 -105 0 -136 -3 -133 -12 3 -7 20 -15 39
-18 27 -4 33 -9 31 -25 -2 -11 -49 -136 -105 -277 l-101 -258 -97 258 c-54
141 -98 267 -99 279 0 16 7 22 27 25 14 2 28 9 31 16 3 9 -35 12 -168 12 -133
0 -171 -3 -168 -12z"/>
<path d="M5904 1490 c-102 -20 -186 -85 -225 -173 -33 -73 -34 -220 -3 -288
32 -69 86 -123 156 -155 59 -27 71 -29 188 -29 96 0 134 4 163 17 l37 17 0
126 0 127 30 11 c17 6 30 15 30 19 0 4 -47 8 -105 8 -58 0 -105 -3 -105 -7 0
-5 15 -15 33 -23 l32 -15 3 -107 c3 -102 2 -107 -20 -120 -13 -7 -52 -12 -88
-12 -84 1 -156 32 -211 91 -61 67 -83 123 -84 218 0 68 4 89 28 138 23 47 38
63 80 87 62 35 135 46 210 30 70 -14 119 -46 132 -86 18 -55 30 -42 33 36 l3
76 -98 12 c-108 13 -158 14 -219 2z"/>
<path d="M6600 1487 c-98 -28 -174 -99 -211 -196 -30 -80 -24 -214 14 -287 59
-115 162 -169 310 -162 135 6 230 68 285 187 23 48 27 69 27 151 -1 79 -5 103
-25 144 -51 106 -144 163 -276 171 -49 3 -96 0 -124 -8z m208 -64 c90 -55 140
-174 128 -302 -17 -190 -166 -290 -321 -217 -171 79 -218 363 -82 494 71 68
188 79 275 25z"/>
<path d="M3040 1475 c0 -9 9 -15 25 -15 14 0 29 -8 35 -19 11 -21 14 -459 4
-524 -5 -28 -12 -39 -30 -43 -54 -14 -15 -22 139 -28 180 -8 231 -1 310 42 85
46 142 138 153 248 16 156 -59 279 -201 329 -70 25 -435 33 -435 10z m378 -55
c104 -46 163 -133 170 -251 7 -126 -29 -204 -119 -254 -49 -27 -63 -30 -145
-30 -142 0 -134 -17 -134 296 0 196 3 259 13 263 26 12 169 -4 215 -24z"/>
<path d="M3793 1475 c2 -5 12 -12 23 -14 43 -8 44 -11 44 -288 0 -163 -4 -272
-10 -284 -6 -10 -20 -19 -30 -19 -11 0 -20 -4 -20 -10 0 -12 346 -14 353 -2 3
4 8 31 12 61 6 43 5 53 -6 49 -8 -3 -15 -14 -17 -26 -5 -35 -40 -52 -109 -52
-87 0 -93 11 -93 162 l0 118 53 -1 c79 -2 101 -10 105 -42 7 -62 32 -15 32 61
0 40 -11 54 -25 32 -3 -5 -42 -10 -86 -10 l-79 0 0 115 0 115 66 0 c73 0 104
-12 104 -40 0 -23 18 -37 24 -18 2 7 7 33 10 58 l5 45 -180 0 c-119 1 -178 -3
-176 -10z"/>
<path d="M5330 1474 c0 -8 8 -14 18 -14 40 0 42 -14 42 -281 0 -143 -4 -269
-10 -283 -6 -16 -17 -26 -30 -26 -11 0 -20 -4 -20 -10 0 -6 43 -10 110 -10 67
0 110 4 110 10 0 6 -10 10 -22 10 -53 1 -53 -2 -53 297 l0 278 28 13 c15 7 27
17 27 21 0 5 -45 9 -100 9 -79 0 -100 -3 -100 -14z"/>
</g>
</svg>
